<svg xmlns="http://www.w3.org/2000/svg" viewBox="0 0 400 400" width="400" height="400">
  <rect width="400" height="400" fill="#e8eaf6"/>
  <defs><filter id="glow" x="-80%" y="-80%" width="260%" height="260%"><feGaussianBlur stdDeviation="2" result="b"/><feMerge><feMergeNode in="b"/><feMergeNode in="SourceGraphic"/></feMerge></filter></defs>
  <g filter="url(#glow)" opacity="0.42">
  <g transform="translate(15,20) scale(0.75)"><rect x="4" y="-3" width="2" height="3" fill="#3949ab" opacity="0.6"/><rect x="7" y="-4" width="2" height="4" fill="#3949ab" opacity="0.8"/><rect x="10" y="-3" width="2" height="3" fill="#3949ab" opacity="0.6"/><rect x="4" y="0" width="8" height="2" fill="#3949ab"/><rect x="2" y="2" width="12" height="2" fill="#3949ab" opacity="0.9"/><rect x="1" y="4" width="14" height="2" fill="#3949ab"/><rect x="0" y="6" width="16" height="2" fill="#3949ab" opacity="0.95"/><rect x="0" y="8" width="16" height="2" fill="#3949ab"/><rect x="0" y="10" width="16" height="2" fill="#3949ab" opacity="0.95"/><rect x="1" y="12" width="14" height="2" fill="#3949ab"/><rect x="2" y="14" width="12" height="2" fill="#3949ab" opacity="0.9"/><rect x="4" y="16" width="8" height="2" fill="#3949ab"/><rect x="3" y="1" width="5" height="2" fill="#fff" opacity="0.8"/></g><g transform="translate(90,10) scale(0.6)"><rect x="4" y="-3" width="2" height="3" fill="#3949ab" opacity="0.6"/><rect x="7" y="-4" width="2" height="4" fill="#3949ab" opacity="0.8"/><rect x="10" y="-3" width="2" height="3" fill="#3949ab" opacity="0.6"/><rect x="4" y="0" width="8" height="2" fill="#3949ab"/><rect x="2" y="2" width="12" height="2" fill="#3949ab" opacity="0.9"/><rect x="1" y="4" width="14" height="2" fill="#3949ab"/><rect x="0" y="6" width="16" height="2" fill="#3949ab" opacity="0.95"/><rect x="0" y="8" width="16" height="2" fill="#3949ab"/><rect x="0" y="10" width="16" height="2" fill="#3949ab" opacity="0.95"/><rect x="1" y="12" width="14" height="2" fill="#3949ab"/><rect x="2" y="14" width="12" height="2" fill="#3949ab" opacity="0.9"/><rect x="4" y="16" width="8" height="2" fill="#3949ab"/><rect x="3" y="1" width="5" height="2" fill="#fff" opacity="0.8"/></g><g transform="translate(175,30) scale(0.83)"><rect x="4" y="-3" width="2" height="3" fill="#3949ab" opacity="0.6"/><rect x="7" y="-4" width="2" height="4" fill="#3949ab" opacity="0.8"/><rect x="10" y="-3" width="2" height="3" fill="#3949ab" opacity="0.6"/><rect x="4" y="0" width="8" height="2" fill="#3949ab"/><rect x="2" y="2" width="12" height="2" fill="#3949ab" opacity="0.9"/><rect x="1" y="4" width="14" height="2" fill="#3949ab"/><rect x="0" y="6" width="16" height="2" fill="#3949ab" opacity="0.95"/><rect x="0" y="8" width="16" height="2" fill="#3949ab"/><rect x="0" y="10" width="16" height="2" fill="#3949ab" opacity="0.95"/><rect x="1" y="12" width="14" height="2" fill="#3949ab"/><rect x="2" y="14" width="12" height="2" fill="#3949ab" opacity="0.9"/><rect x="4" y="16" width="8" height="2" fill="#3949ab"/><rect x="3" y="1" width="5" height="2" fill="#fff" opacity="0.8"/></g><g transform="translate(265,15) scale(0.68)"><rect x="4" y="-3" width="2" height="3" fill="#3949ab" opacity="0.6"/><rect x="7" y="-4" width="2" height="4" fill="#3949ab" opacity="0.8"/><rect x="10" y="-3" width="2" height="3" fill="#3949ab" opacity="0.6"/><rect x="4" y="0" width="8" height="2" fill="#3949ab"/><rect x="2" y="2" width="12" height="2" fill="#3949ab" opacity="0.9"/><rect x="1" y="4" width="14" height="2" fill="#3949ab"/><rect x="0" y="6" width="16" height="2" fill="#3949ab" opacity="0.95"/><rect x="0" y="8" width="16" height="2" fill="#3949ab"/><rect x="0" y="10" width="16" height="2" fill="#3949ab" opacity="0.95"/><rect x="1" y="12" width="14" height="2" fill="#3949ab"/><rect x="2" y="14" width="12" height="2" fill="#3949ab" opacity="0.9"/><rect x="4" y="16" width="8" height="2" fill="#3949ab"/><rect x="3" y="1" width="5" height="2" fill="#fff" opacity="0.8"/></g><g transform="translate(355,25) scale(0.75)"><rect x="4" y="-3" width="2" height="3" fill="#3949ab" opacity="0.6"/><rect x="7" y="-4" width="2" height="4" fill="#3949ab" opacity="0.8"/><rect x="10" y="-3" width="2" height="3" fill="#3949ab" opacity="0.6"/><rect x="4" y="0" width="8" height="2" fill="#3949ab"/><rect x="2" y="2" width="12" height="2" fill="#3949ab" opacity="0.9"/><rect x="1" y="4" width="14" height="2" fill="#3949ab"/><rect x="0" y="6" width="16" height="2" fill="#3949ab" opacity="0.95"/><rect x="0" y="8" width="16" height="2" fill="#3949ab"/><rect x="0" y="10" width="16" height="2" fill="#3949ab" opacity="0.95"/><rect x="1" y="12" width="14" height="2" fill="#3949ab"/><rect x="2" y="14" width="12" height="2" fill="#3949ab" opacity="0.9"/><rect x="4" y="16" width="8" height="2" fill="#3949ab"/><rect x="3" y="1" width="5" height="2" fill="#fff" opacity="0.8"/></g><g transform="translate(35,85) scale(0.64)"><rect x="4" y="-3" width="2" height="3" fill="#3949ab" opacity="0.6"/><rect x="7" y="-4" width="2" height="4" fill="#3949ab" opacity="0.8"/><rect x="10" y="-3" width="2" height="3" fill="#3949ab" opacity="0.6"/><rect x="4" y="0" width="8" height="2" fill="#3949ab"/><rect x="2" y="2" width="12" height="2" fill="#3949ab" opacity="0.9"/><rect x="1" y="4" width="14" height="2" fill="#3949ab"/><rect x="0" y="6" width="16" height="2" fill="#3949ab" opacity="0.95"/><rect x="0" y="8" width="16" height="2" fill="#3949ab"/><rect x="0" y="10" width="16" height="2" fill="#3949ab" opacity="0.95"/><rect x="1" y="12" width="14" height="2" fill="#3949ab"/><rect x="2" y="14" width="12" height="2" fill="#3949ab" opacity="0.9"/><rect x="4" y="16" width="8" height="2" fill="#3949ab"/><rect x="3" y="1" width="5" height="2" fill="#fff" opacity="0.8"/></g><g transform="translate(120,70) scale(0.83)"><rect x="4" y="-3" width="2" height="3" fill="#3949ab" opacity="0.6"/><rect x="7" y="-4" width="2" height="4" fill="#3949ab" opacity="0.8"/><rect x="10" y="-3" width="2" height="3" fill="#3949ab" opacity="0.6"/><rect x="4" y="0" width="8" height="2" fill="#3949ab"/><rect x="2" y="2" width="12" height="2" fill="#3949ab" opacity="0.9"/><rect x="1" y="4" width="14" height="2" fill="#3949ab"/><rect x="0" y="6" width="16" height="2" fill="#3949ab" opacity="0.95"/><rect x="0" y="8" width="16" height="2" fill="#3949ab"/><rect x="0" y="10" width="16" height="2" fill="#3949ab" opacity="0.95"/><rect x="1" y="12" width="14" height="2" fill="#3949ab"/><rect x="2" y="14" width="12" height="2" fill="#3949ab" opacity="0.9"/><rect x="4" y="16" width="8" height="2" fill="#3949ab"/><rect x="3" y="1" width="5" height="2" fill="#fff" opacity="0.8"/></g><g transform="translate(210,80) scale(0.68)"><rect x="4" y="-3" width="2" height="3" fill="#3949ab" opacity="0.6"/><rect x="7" y="-4" width="2" height="4" fill="#3949ab" opacity="0.8"/><rect x="10" y="-3" width="2" height="3" fill="#3949ab" opacity="0.6"/><rect x="4" y="0" width="8" height="2" fill="#3949ab"/><rect x="2" y="2" width="12" height="2" fill="#3949ab" opacity="0.9"/><rect x="1" y="4" width="14" height="2" fill="#3949ab"/><rect x="0" y="6" width="16" height="2" fill="#3949ab" opacity="0.95"/><rect x="0" y="8" width="16" height="2" fill="#3949ab"/><rect x="0" y="10" width="16" height="2" fill="#3949ab" opacity="0.95"/><rect x="1" y="12" width="14" height="2" fill="#3949ab"/><rect x="2" y="14" width="12" height="2" fill="#3949ab" opacity="0.9"/><rect x="4" y="16" width="8" height="2" fill="#3949ab"/><rect x="3" y="1" width="5" height="2" fill="#fff" opacity="0.8"/></g><g transform="translate(305,65) scale(0.75)"><rect x="4" y="-3" width="2" height="3" fill="#3949ab" opacity="0.6"/><rect x="7" y="-4" width="2" height="4" fill="#3949ab" opacity="0.8"/><rect x="10" y="-3" width="2" height="3" fill="#3949ab" opacity="0.6"/><rect x="4" y="0" width="8" height="2" fill="#3949ab"/><rect x="2" y="2" width="12" height="2" fill="#3949ab" opacity="0.9"/><rect x="1" y="4" width="14" height="2" fill="#3949ab"/><rect x="0" y="6" width="16" height="2" fill="#3949ab" opacity="0.95"/><rect x="0" y="8" width="16" height="2" fill="#3949ab"/><rect x="0" y="10" width="16" height="2" fill="#3949ab" opacity="0.95"/><rect x="1" y="12" width="14" height="2" fill="#3949ab"/><rect x="2" y="14" width="12" height="2" fill="#3949ab" opacity="0.9"/><rect x="4" y="16" width="8" height="2" fill="#3949ab"/><rect x="3" y="1" width="5" height="2" fill="#fff" opacity="0.8"/></g><g transform="translate(375,100) scale(0.6)"><rect x="4" y="-3" width="2" height="3" fill="#3949ab" opacity="0.6"/><rect x="7" y="-4" width="2" height="4" fill="#3949ab" opacity="0.8"/><rect x="10" y="-3" width="2" height="3" fill="#3949ab" opacity="0.6"/><rect x="4" y="0" width="8" height="2" fill="#3949ab"/><rect x="2" y="2" width="12" height="2" fill="#3949ab" opacity="0.9"/><rect x="1" y="4" width="14" height="2" fill="#3949ab"/><rect x="0" y="6" width="16" height="2" fill="#3949ab" opacity="0.95"/><rect x="0" y="8" width="16" height="2" fill="#3949ab"/><rect x="0" y="10" width="16" height="2" fill="#3949ab" opacity="0.95"/><rect x="1" y="12" width="14" height="2" fill="#3949ab"/><rect x="2" y="14" width="12" height="2" fill="#3949ab" opacity="0.9"/><rect x="4" y="16" width="8" height="2" fill="#3949ab"/><rect x="3" y="1" width="5" height="2" fill="#fff" opacity="0.8"/></g><g transform="translate(10,150) scale(0.83)"><rect x="4" y="-3" width="2" height="3" fill="#3949ab" opacity="0.6"/><rect x="7" y="-4" width="2" height="4" fill="#3949ab" opacity="0.8"/><rect x="10" y="-3" width="2" height="3" fill="#3949ab" opacity="0.6"/><rect x="4" y="0" width="8" height="2" fill="#3949ab"/><rect x="2" y="2" width="12" height="2" fill="#3949ab" opacity="0.9"/><rect x="1" y="4" width="14" height="2" fill="#3949ab"/><rect x="0" y="6" width="16" height="2" fill="#3949ab" opacity="0.95"/><rect x="0" y="8" width="16" height="2" fill="#3949ab"/><rect x="0" y="10" width="16" height="2" fill="#3949ab" opacity="0.95"/><rect x="1" y="12" width="14" height="2" fill="#3949ab"/><rect x="2" y="14" width="12" height="2" fill="#3949ab" opacity="0.9"/><rect x="4" y="16" width="8" height="2" fill="#3949ab"/><rect x="3" y="1" width="5" height="2" fill="#fff" opacity="0.8"/></g><g transform="translate(100,140) scale(0.68)"><rect x="4" y="-3" width="2" height="3" fill="#3949ab" opacity="0.6"/><rect x="7" y="-4" width="2" height="4" fill="#3949ab" opacity="0.8"/><rect x="10" y="-3" width="2" height="3" fill="#3949ab" opacity="0.6"/><rect x="4" y="0" width="8" height="2" fill="#3949ab"/><rect x="2" y="2" width="12" height="2" fill="#3949ab" opacity="0.9"/><rect x="1" y="4" width="14" height="2" fill="#3949ab"/><rect x="0" y="6" width="16" height="2" fill="#3949ab" opacity="0.95"/><rect x="0" y="8" width="16" height="2" fill="#3949ab"/><rect x="0" y="10" width="16" height="2" fill="#3949ab" opacity="0.95"/><rect x="1" y="12" width="14" height="2" fill="#3949ab"/><rect x="2" y="14" width="12" height="2" fill="#3949ab" opacity="0.9"/><rect x="4" y="16" width="8" height="2" fill="#3949ab"/><rect x="3" y="1" width="5" height="2" fill="#fff" opacity="0.8"/></g><g transform="translate(195,150) scale(0.75)"><rect x="4" y="-3" width="2" height="3" fill="#3949ab" opacity="0.6"/><rect x="7" y="-4" width="2" height="4" fill="#3949ab" opacity="0.8"/><rect x="10" y="-3" width="2" height="3" fill="#3949ab" opacity="0.6"/><rect x="4" y="0" width="8" height="2" fill="#3949ab"/><rect x="2" y="2" width="12" height="2" fill="#3949ab" opacity="0.9"/><rect x="1" y="4" width="14" height="2" fill="#3949ab"/><rect x="0" y="6" width="16" height="2" fill="#3949ab" opacity="0.95"/><rect x="0" y="8" width="16" height="2" fill="#3949ab"/><rect x="0" y="10" width="16" height="2" fill="#3949ab" opacity="0.95"/><rect x="1" y="12" width="14" height="2" fill="#3949ab"/><rect x="2" y="14" width="12" height="2" fill="#3949ab" opacity="0.9"/><rect x="4" y="16" width="8" height="2" fill="#3949ab"/><rect x="3" y="1" width="5" height="2" fill="#fff" opacity="0.8"/></g><g transform="translate(290,135) scale(0.64)"><rect x="4" y="-3" width="2" height="3" fill="#3949ab" opacity="0.6"/><rect x="7" y="-4" width="2" height="4" fill="#3949ab" opacity="0.8"/><rect x="10" y="-3" width="2" height="3" fill="#3949ab" opacity="0.6"/><rect x="4" y="0" width="8" height="2" fill="#3949ab"/><rect x="2" y="2" width="12" height="2" fill="#3949ab" opacity="0.9"/><rect x="1" y="4" width="14" height="2" fill="#3949ab"/><rect x="0" y="6" width="16" height="2" fill="#3949ab" opacity="0.95"/><rect x="0" y="8" width="16" height="2" fill="#3949ab"/><rect x="0" y="10" width="16" height="2" fill="#3949ab" opacity="0.95"/><rect x="1" y="12" width="14" height="2" fill="#3949ab"/><rect x="2" y="14" width="12" height="2" fill="#3949ab" opacity="0.9"/><rect x="4" y="16" width="8" height="2" fill="#3949ab"/><rect x="3" y="1" width="5" height="2" fill="#fff" opacity="0.8"/></g><g transform="translate(365,160) scale(0.83)"><rect x="4" y="-3" width="2" height="3" fill="#3949ab" opacity="0.6"/><rect x="7" y="-4" width="2" height="4" fill="#3949ab" opacity="0.8"/><rect x="10" y="-3" width="2" height="3" fill="#3949ab" opacity="0.6"/><rect x="4" y="0" width="8" height="2" fill="#3949ab"/><rect x="2" y="2" width="12" height="2" fill="#3949ab" opacity="0.9"/><rect x="1" y="4" width="14" height="2" fill="#3949ab"/><rect x="0" y="6" width="16" height="2" fill="#3949ab" opacity="0.95"/><rect x="0" y="8" width="16" height="2" fill="#3949ab"/><rect x="0" y="10" width="16" height="2" fill="#3949ab" opacity="0.95"/><rect x="1" y="12" width="14" height="2" fill="#3949ab"/><rect x="2" y="14" width="12" height="2" fill="#3949ab" opacity="0.9"/><rect x="4" y="16" width="8" height="2" fill="#3949ab"/><rect x="3" y="1" width="5" height="2" fill="#fff" opacity="0.8"/></g><g transform="translate(45,210) scale(0.68)"><rect x="4" y="-3" width="2" height="3" fill="#3949ab" opacity="0.6"/><rect x="7" y="-4" width="2" height="4" fill="#3949ab" opacity="0.8"/><rect x="10" y="-3" width="2" height="3" fill="#3949ab" opacity="0.6"/><rect x="4" y="0" width="8" height="2" fill="#3949ab"/><rect x="2" y="2" width="12" height="2" fill="#3949ab" opacity="0.9"/><rect x="1" y="4" width="14" height="2" fill="#3949ab"/><rect x="0" y="6" width="16" height="2" fill="#3949ab" opacity="0.95"/><rect x="0" y="8" width="16" height="2" fill="#3949ab"/><rect x="0" y="10" width="16" height="2" fill="#3949ab" opacity="0.95"/><rect x="1" y="12" width="14" height="2" fill="#3949ab"/><rect x="2" y="14" width="12" height="2" fill="#3949ab" opacity="0.9"/><rect x="4" y="16" width="8" height="2" fill="#3949ab"/><rect x="3" y="1" width="5" height="2" fill="#fff" opacity="0.8"/></g><g transform="translate(140,200) scale(0.75)"><rect x="4" y="-3" width="2" height="3" fill="#3949ab" opacity="0.6"/><rect x="7" y="-4" width="2" height="4" fill="#3949ab" opacity="0.8"/><rect x="10" y="-3" width="2" height="3" fill="#3949ab" opacity="0.6"/><rect x="4" y="0" width="8" height="2" fill="#3949ab"/><rect x="2" y="2" width="12" height="2" fill="#3949ab" opacity="0.9"/><rect x="1" y="4" width="14" height="2" fill="#3949ab"/><rect x="0" y="6" width="16" height="2" fill="#3949ab" opacity="0.95"/><rect x="0" y="8" width="16" height="2" fill="#3949ab"/><rect x="0" y="10" width="16" height="2" fill="#3949ab" opacity="0.95"/><rect x="1" y="12" width="14" height="2" fill="#3949ab"/><rect x="2" y="14" width="12" height="2" fill="#3949ab" opacity="0.9"/><rect x="4" y="16" width="8" height="2" fill="#3949ab"/><rect x="3" y="1" width="5" height="2" fill="#fff" opacity="0.8"/></g><g transform="translate(235,215) scale(0.6)"><rect x="4" y="-3" width="2" height="3" fill="#3949ab" opacity="0.6"/><rect x="7" y="-4" width="2" height="4" fill="#3949ab" opacity="0.8"/><rect x="10" y="-3" width="2" height="3" fill="#3949ab" opacity="0.6"/><rect x="4" y="0" width="8" height="2" fill="#3949ab"/><rect x="2" y="2" width="12" height="2" fill="#3949ab" opacity="0.9"/><rect x="1" y="4" width="14" height="2" fill="#3949ab"/><rect x="0" y="6" width="16" height="2" fill="#3949ab" opacity="0.95"/><rect x="0" y="8" width="16" height="2" fill="#3949ab"/><rect x="0" y="10" width="16" height="2" fill="#3949ab" opacity="0.95"/><rect x="1" y="12" width="14" height="2" fill="#3949ab"/><rect x="2" y="14" width="12" height="2" fill="#3949ab" opacity="0.9"/><rect x="4" y="16" width="8" height="2" fill="#3949ab"/><rect x="3" y="1" width="5" height="2" fill="#fff" opacity="0.8"/></g><g transform="translate(335,205) scale(0.83)"><rect x="4" y="-3" width="2" height="3" fill="#3949ab" opacity="0.6"/><rect x="7" y="-4" width="2" height="4" fill="#3949ab" opacity="0.8"/><rect x="10" y="-3" width="2" height="3" fill="#3949ab" opacity="0.6"/><rect x="4" y="0" width="8" height="2" fill="#3949ab"/><rect x="2" y="2" width="12" height="2" fill="#3949ab" opacity="0.9"/><rect x="1" y="4" width="14" height="2" fill="#3949ab"/><rect x="0" y="6" width="16" height="2" fill="#3949ab" opacity="0.95"/><rect x="0" y="8" width="16" height="2" fill="#3949ab"/><rect x="0" y="10" width="16" height="2" fill="#3949ab" opacity="0.95"/><rect x="1" y="12" width="14" height="2" fill="#3949ab"/><rect x="2" y="14" width="12" height="2" fill="#3949ab" opacity="0.9"/><rect x="4" y="16" width="8" height="2" fill="#3949ab"/><rect x="3" y="1" width="5" height="2" fill="#fff" opacity="0.8"/></g><g transform="translate(20,270) scale(0.68)"><rect x="4" y="-3" width="2" height="3" fill="#3949ab" opacity="0.6"/><rect x="7" y="-4" width="2" height="4" fill="#3949ab" opacity="0.8"/><rect x="10" y="-3" width="2" height="3" fill="#3949ab" opacity="0.6"/><rect x="4" y="0" width="8" height="2" fill="#3949ab"/><rect x="2" y="2" width="12" height="2" fill="#3949ab" opacity="0.9"/><rect x="1" y="4" width="14" height="2" fill="#3949ab"/><rect x="0" y="6" width="16" height="2" fill="#3949ab" opacity="0.95"/><rect x="0" y="8" width="16" height="2" fill="#3949ab"/><rect x="0" y="10" width="16" height="2" fill="#3949ab" opacity="0.95"/><rect x="1" y="12" width="14" height="2" fill="#3949ab"/><rect x="2" y="14" width="12" height="2" fill="#3949ab" opacity="0.9"/><rect x="4" y="16" width="8" height="2" fill="#3949ab"/><rect x="3" y="1" width="5" height="2" fill="#fff" opacity="0.8"/></g><g transform="translate(115,260) scale(0.75)"><rect x="4" y="-3" width="2" height="3" fill="#3949ab" opacity="0.6"/><rect x="7" y="-4" width="2" height="4" fill="#3949ab" opacity="0.8"/><rect x="10" y="-3" width="2" height="3" fill="#3949ab" opacity="0.6"/><rect x="4" y="0" width="8" height="2" fill="#3949ab"/><rect x="2" y="2" width="12" height="2" fill="#3949ab" opacity="0.9"/><rect x="1" y="4" width="14" height="2" fill="#3949ab"/><rect x="0" y="6" width="16" height="2" fill="#3949ab" opacity="0.95"/><rect x="0" y="8" width="16" height="2" fill="#3949ab"/><rect x="0" y="10" width="16" height="2" fill="#3949ab" opacity="0.95"/><rect x="1" y="12" width="14" height="2" fill="#3949ab"/><rect x="2" y="14" width="12" height="2" fill="#3949ab" opacity="0.9"/><rect x="4" y="16" width="8" height="2" fill="#3949ab"/><rect x="3" y="1" width="5" height="2" fill="#fff" opacity="0.8"/></g><g transform="translate(210,275) scale(0.64)"><rect x="4" y="-3" width="2" height="3" fill="#3949ab" opacity="0.6"/><rect x="7" y="-4" width="2" height="4" fill="#3949ab" opacity="0.8"/><rect x="10" y="-3" width="2" height="3" fill="#3949ab" opacity="0.6"/><rect x="4" y="0" width="8" height="2" fill="#3949ab"/><rect x="2" y="2" width="12" height="2" fill="#3949ab" opacity="0.9"/><rect x="1" y="4" width="14" height="2" fill="#3949ab"/><rect x="0" y="6" width="16" height="2" fill="#3949ab" opacity="0.95"/><rect x="0" y="8" width="16" height="2" fill="#3949ab"/><rect x="0" y="10" width="16" height="2" fill="#3949ab" opacity="0.95"/><rect x="1" y="12" width="14" height="2" fill="#3949ab"/><rect x="2" y="14" width="12" height="2" fill="#3949ab" opacity="0.9"/><rect x="4" y="16" width="8" height="2" fill="#3949ab"/><rect x="3" y="1" width="5" height="2" fill="#fff" opacity="0.8"/></g><g transform="translate(310,265) scale(0.83)"><rect x="4" y="-3" width="2" height="3" fill="#3949ab" opacity="0.6"/><rect x="7" y="-4" width="2" height="4" fill="#3949ab" opacity="0.8"/><rect x="10" y="-3" width="2" height="3" fill="#3949ab" opacity="0.6"/><rect x="4" y="0" width="8" height="2" fill="#3949ab"/><rect x="2" y="2" width="12" height="2" fill="#3949ab" opacity="0.9"/><rect x="1" y="4" width="14" height="2" fill="#3949ab"/><rect x="0" y="6" width="16" height="2" fill="#3949ab" opacity="0.95"/><rect x="0" y="8" width="16" height="2" fill="#3949ab"/><rect x="0" y="10" width="16" height="2" fill="#3949ab" opacity="0.95"/><rect x="1" y="12" width="14" height="2" fill="#3949ab"/><rect x="2" y="14" width="12" height="2" fill="#3949ab" opacity="0.9"/><rect x="4" y="16" width="8" height="2" fill="#3949ab"/><rect x="3" y="1" width="5" height="2" fill="#fff" opacity="0.8"/></g><g transform="translate(370,290) scale(0.68)"><rect x="4" y="-3" width="2" height="3" fill="#3949ab" opacity="0.6"/><rect x="7" y="-4" width="2" height="4" fill="#3949ab" opacity="0.8"/><rect x="10" y="-3" width="2" height="3" fill="#3949ab" opacity="0.6"/><rect x="4" y="0" width="8" height="2" fill="#3949ab"/><rect x="2" y="2" width="12" height="2" fill="#3949ab" opacity="0.9"/><rect x="1" y="4" width="14" height="2" fill="#3949ab"/><rect x="0" y="6" width="16" height="2" fill="#3949ab" opacity="0.95"/><rect x="0" y="8" width="16" height="2" fill="#3949ab"/><rect x="0" y="10" width="16" height="2" fill="#3949ab" opacity="0.95"/><rect x="1" y="12" width="14" height="2" fill="#3949ab"/><rect x="2" y="14" width="12" height="2" fill="#3949ab" opacity="0.9"/><rect x="4" y="16" width="8" height="2" fill="#3949ab"/><rect x="3" y="1" width="5" height="2" fill="#fff" opacity="0.8"/></g><g transform="translate(65,325) scale(0.75)"><rect x="4" y="-3" width="2" height="3" fill="#3949ab" opacity="0.6"/><rect x="7" y="-4" width="2" height="4" fill="#3949ab" opacity="0.8"/><rect x="10" y="-3" width="2" height="3" fill="#3949ab" opacity="0.6"/><rect x="4" y="0" width="8" height="2" fill="#3949ab"/><rect x="2" y="2" width="12" height="2" fill="#3949ab" opacity="0.9"/><rect x="1" y="4" width="14" height="2" fill="#3949ab"/><rect x="0" y="6" width="16" height="2" fill="#3949ab" opacity="0.95"/><rect x="0" y="8" width="16" height="2" fill="#3949ab"/><rect x="0" y="10" width="16" height="2" fill="#3949ab" opacity="0.95"/><rect x="1" y="12" width="14" height="2" fill="#3949ab"/><rect x="2" y="14" width="12" height="2" fill="#3949ab" opacity="0.9"/><rect x="4" y="16" width="8" height="2" fill="#3949ab"/><rect x="3" y="1" width="5" height="2" fill="#fff" opacity="0.8"/></g><g transform="translate(160,315) scale(0.6)"><rect x="4" y="-3" width="2" height="3" fill="#3949ab" opacity="0.6"/><rect x="7" y="-4" width="2" height="4" fill="#3949ab" opacity="0.8"/><rect x="10" y="-3" width="2" height="3" fill="#3949ab" opacity="0.6"/><rect x="4" y="0" width="8" height="2" fill="#3949ab"/><rect x="2" y="2" width="12" height="2" fill="#3949ab" opacity="0.9"/><rect x="1" y="4" width="14" height="2" fill="#3949ab"/><rect x="0" y="6" width="16" height="2" fill="#3949ab" opacity="0.95"/><rect x="0" y="8" width="16" height="2" fill="#3949ab"/><rect x="0" y="10" width="16" height="2" fill="#3949ab" opacity="0.95"/><rect x="1" y="12" width="14" height="2" fill="#3949ab"/><rect x="2" y="14" width="12" height="2" fill="#3949ab" opacity="0.9"/><rect x="4" y="16" width="8" height="2" fill="#3949ab"/><rect x="3" y="1" width="5" height="2" fill="#fff" opacity="0.8"/></g><g transform="translate(260,330) scale(0.83)"><rect x="4" y="-3" width="2" height="3" fill="#3949ab" opacity="0.6"/><rect x="7" y="-4" width="2" height="4" fill="#3949ab" opacity="0.8"/><rect x="10" y="-3" width="2" height="3" fill="#3949ab" opacity="0.6"/><rect x="4" y="0" width="8" height="2" fill="#3949ab"/><rect x="2" y="2" width="12" height="2" fill="#3949ab" opacity="0.9"/><rect x="1" y="4" width="14" height="2" fill="#3949ab"/><rect x="0" y="6" width="16" height="2" fill="#3949ab" opacity="0.95"/><rect x="0" y="8" width="16" height="2" fill="#3949ab"/><rect x="0" y="10" width="16" height="2" fill="#3949ab" opacity="0.95"/><rect x="1" y="12" width="14" height="2" fill="#3949ab"/><rect x="2" y="14" width="12" height="2" fill="#3949ab" opacity="0.9"/><rect x="4" y="16" width="8" height="2" fill="#3949ab"/><rect x="3" y="1" width="5" height="2" fill="#fff" opacity="0.8"/></g><g transform="translate(355,345) scale(0.68)"><rect x="4" y="-3" width="2" height="3" fill="#3949ab" opacity="0.6"/><rect x="7" y="-4" width="2" height="4" fill="#3949ab" opacity="0.8"/><rect x="10" y="-3" width="2" height="3" fill="#3949ab" opacity="0.6"/><rect x="4" y="0" width="8" height="2" fill="#3949ab"/><rect x="2" y="2" width="12" height="2" fill="#3949ab" opacity="0.9"/><rect x="1" y="4" width="14" height="2" fill="#3949ab"/><rect x="0" y="6" width="16" height="2" fill="#3949ab" opacity="0.95"/><rect x="0" y="8" width="16" height="2" fill="#3949ab"/><rect x="0" y="10" width="16" height="2" fill="#3949ab" opacity="0.95"/><rect x="1" y="12" width="14" height="2" fill="#3949ab"/><rect x="2" y="14" width="12" height="2" fill="#3949ab" opacity="0.9"/><rect x="4" y="16" width="8" height="2" fill="#3949ab"/><rect x="3" y="1" width="5" height="2" fill="#fff" opacity="0.8"/></g><g transform="translate(30,375) scale(0.75)"><rect x="4" y="-3" width="2" height="3" fill="#3949ab" opacity="0.6"/><rect x="7" y="-4" width="2" height="4" fill="#3949ab" opacity="0.8"/><rect x="10" y="-3" width="2" height="3" fill="#3949ab" opacity="0.6"/><rect x="4" y="0" width="8" height="2" fill="#3949ab"/><rect x="2" y="2" width="12" height="2" fill="#3949ab" opacity="0.9"/><rect x="1" y="4" width="14" height="2" fill="#3949ab"/><rect x="0" y="6" width="16" height="2" fill="#3949ab" opacity="0.95"/><rect x="0" y="8" width="16" height="2" fill="#3949ab"/><rect x="0" y="10" width="16" height="2" fill="#3949ab" opacity="0.95"/><rect x="1" y="12" width="14" height="2" fill="#3949ab"/><rect x="2" y="14" width="12" height="2" fill="#3949ab" opacity="0.9"/><rect x="4" y="16" width="8" height="2" fill="#3949ab"/><rect x="3" y="1" width="5" height="2" fill="#fff" opacity="0.8"/></g><g transform="translate(145,365) scale(0.64)"><rect x="4" y="-3" width="2" height="3" fill="#3949ab" opacity="0.6"/><rect x="7" y="-4" width="2" height="4" fill="#3949ab" opacity="0.8"/><rect x="10" y="-3" width="2" height="3" fill="#3949ab" opacity="0.6"/><rect x="4" y="0" width="8" height="2" fill="#3949ab"/><rect x="2" y="2" width="12" height="2" fill="#3949ab" opacity="0.9"/><rect x="1" y="4" width="14" height="2" fill="#3949ab"/><rect x="0" y="6" width="16" height="2" fill="#3949ab" opacity="0.95"/><rect x="0" y="8" width="16" height="2" fill="#3949ab"/><rect x="0" y="10" width="16" height="2" fill="#3949ab" opacity="0.95"/><rect x="1" y="12" width="14" height="2" fill="#3949ab"/><rect x="2" y="14" width="12" height="2" fill="#3949ab" opacity="0.9"/><rect x="4" y="16" width="8" height="2" fill="#3949ab"/><rect x="3" y="1" width="5" height="2" fill="#fff" opacity="0.8"/></g><g transform="translate(250,380) scale(0.83)"><rect x="4" y="-3" width="2" height="3" fill="#3949ab" opacity="0.6"/><rect x="7" y="-4" width="2" height="4" fill="#3949ab" opacity="0.8"/><rect x="10" y="-3" width="2" height="3" fill="#3949ab" opacity="0.6"/><rect x="4" y="0" width="8" height="2" fill="#3949ab"/><rect x="2" y="2" width="12" height="2" fill="#3949ab" opacity="0.9"/><rect x="1" y="4" width="14" height="2" fill="#3949ab"/><rect x="0" y="6" width="16" height="2" fill="#3949ab" opacity="0.95"/><rect x="0" y="8" width="16" height="2" fill="#3949ab"/><rect x="0" y="10" width="16" height="2" fill="#3949ab" opacity="0.95"/><rect x="1" y="12" width="14" height="2" fill="#3949ab"/><rect x="2" y="14" width="12" height="2" fill="#3949ab" opacity="0.9"/><rect x="4" y="16" width="8" height="2" fill="#3949ab"/><rect x="3" y="1" width="5" height="2" fill="#fff" opacity="0.8"/></g><g transform="translate(345,385) scale(0.68)"><rect x="4" y="-3" width="2" height="3" fill="#3949ab" opacity="0.6"/><rect x="7" y="-4" width="2" height="4" fill="#3949ab" opacity="0.8"/><rect x="10" y="-3" width="2" height="3" fill="#3949ab" opacity="0.6"/><rect x="4" y="0" width="8" height="2" fill="#3949ab"/><rect x="2" y="2" width="12" height="2" fill="#3949ab" opacity="0.9"/><rect x="1" y="4" width="14" height="2" fill="#3949ab"/><rect x="0" y="6" width="16" height="2" fill="#3949ab" opacity="0.95"/><rect x="0" y="8" width="16" height="2" fill="#3949ab"/><rect x="0" y="10" width="16" height="2" fill="#3949ab" opacity="0.95"/><rect x="1" y="12" width="14" height="2" fill="#3949ab"/><rect x="2" y="14" width="12" height="2" fill="#3949ab" opacity="0.9"/><rect x="4" y="16" width="8" height="2" fill="#3949ab"/><rect x="3" y="1" width="5" height="2" fill="#fff" opacity="0.8"/></g>
  </g>
</svg>