<svg xmlns="http://www.w3.org/2000/svg" viewBox="0 0 400 400" width="400" height="400">
  <rect width="400" height="400" fill="#fff3e0"/>
  <defs><filter id="glow" x="-80%" y="-80%" width="260%" height="260%"><feGaussianBlur stdDeviation="2" result="b"/><feMerge><feMergeNode in="b"/><feMergeNode in="SourceGraphic"/></feMerge></filter></defs>
  <g filter="url(#glow)" opacity="0.42">
  <g transform="translate(15,15) scale(0.6)"><rect x="9" y="-5" width="2" height="5" fill="#43a047"/><rect x="11" y="-4" width="5" height="3" fill="#66bb6a" opacity="0.8"/><rect x="4" y="0" width="12" height="3" fill="#e65100"/><rect x="2" y="3" width="16" height="3" fill="#e65100" opacity="0.9"/><rect x="0" y="6" width="20" height="3" fill="#e65100"/><rect x="0" y="9" width="20" height="3" fill="#e65100" opacity="0.9"/><rect x="0" y="12" width="20" height="3" fill="#e65100"/><rect x="2" y="15" width="16" height="3" fill="#e65100" opacity="0.9"/><rect x="4" y="18" width="12" height="3" fill="#e65100"/><rect x="9" y="3" width="2" height="15" fill="#ff6d00" opacity="0.45"/><rect x="5" y="5" width="1" height="11" fill="#ff6d00" opacity="0.3"/><rect x="14" y="5" width="1" height="11" fill="#ff6d00" opacity="0.3"/><rect x="4" y="1" width="5" height="2" fill="#fff" opacity="0.75"/></g><g transform="translate(115,35) scale(0.51)"><rect x="9" y="-5" width="2" height="5" fill="#43a047"/><rect x="11" y="-4" width="5" height="3" fill="#66bb6a" opacity="0.8"/><rect x="4" y="0" width="12" height="3" fill="#e65100"/><rect x="2" y="3" width="16" height="3" fill="#e65100" opacity="0.9"/><rect x="0" y="6" width="20" height="3" fill="#e65100"/><rect x="0" y="9" width="20" height="3" fill="#e65100" opacity="0.9"/><rect x="0" y="12" width="20" height="3" fill="#e65100"/><rect x="2" y="15" width="16" height="3" fill="#e65100" opacity="0.9"/><rect x="4" y="18" width="12" height="3" fill="#e65100"/><rect x="9" y="3" width="2" height="15" fill="#ff6d00" opacity="0.45"/><rect x="5" y="5" width="1" height="11" fill="#ff6d00" opacity="0.3"/><rect x="14" y="5" width="1" height="11" fill="#ff6d00" opacity="0.3"/><rect x="4" y="1" width="5" height="2" fill="#fff" opacity="0.75"/></g><g transform="translate(225,10) scale(0.66)"><rect x="9" y="-5" width="2" height="5" fill="#43a047"/><rect x="11" y="-4" width="5" height="3" fill="#66bb6a" opacity="0.8"/><rect x="4" y="0" width="12" height="3" fill="#e65100"/><rect x="2" y="3" width="16" height="3" fill="#e65100" opacity="0.9"/><rect x="0" y="6" width="20" height="3" fill="#e65100"/><rect x="0" y="9" width="20" height="3" fill="#e65100" opacity="0.9"/><rect x="0" y="12" width="20" height="3" fill="#e65100"/><rect x="2" y="15" width="16" height="3" fill="#e65100" opacity="0.9"/><rect x="4" y="18" width="12" height="3" fill="#e65100"/><rect x="9" y="3" width="2" height="15" fill="#ff6d00" opacity="0.45"/><rect x="5" y="5" width="1" height="11" fill="#ff6d00" opacity="0.3"/><rect x="14" y="5" width="1" height="11" fill="#ff6d00" opacity="0.3"/><rect x="4" y="1" width="5" height="2" fill="#fff" opacity="0.75"/></g><g transform="translate(330,25) scale(0.54)"><rect x="9" y="-5" width="2" height="5" fill="#43a047"/><rect x="11" y="-4" width="5" height="3" fill="#66bb6a" opacity="0.8"/><rect x="4" y="0" width="12" height="3" fill="#e65100"/><rect x="2" y="3" width="16" height="3" fill="#e65100" opacity="0.9"/><rect x="0" y="6" width="20" height="3" fill="#e65100"/><rect x="0" y="9" width="20" height="3" fill="#e65100" opacity="0.9"/><rect x="0" y="12" width="20" height="3" fill="#e65100"/><rect x="2" y="15" width="16" height="3" fill="#e65100" opacity="0.9"/><rect x="4" y="18" width="12" height="3" fill="#e65100"/><rect x="9" y="3" width="2" height="15" fill="#ff6d00" opacity="0.45"/><rect x="5" y="5" width="1" height="11" fill="#ff6d00" opacity="0.3"/><rect x="14" y="5" width="1" height="11" fill="#ff6d00" opacity="0.3"/><rect x="4" y="1" width="5" height="2" fill="#fff" opacity="0.75"/></g><g transform="translate(370,70) scale(0.6)"><rect x="9" y="-5" width="2" height="5" fill="#43a047"/><rect x="11" y="-4" width="5" height="3" fill="#66bb6a" opacity="0.8"/><rect x="4" y="0" width="12" height="3" fill="#e65100"/><rect x="2" y="3" width="16" height="3" fill="#e65100" opacity="0.9"/><rect x="0" y="6" width="20" height="3" fill="#e65100"/><rect x="0" y="9" width="20" height="3" fill="#e65100" opacity="0.9"/><rect x="0" y="12" width="20" height="3" fill="#e65100"/><rect x="2" y="15" width="16" height="3" fill="#e65100" opacity="0.9"/><rect x="4" y="18" width="12" height="3" fill="#e65100"/><rect x="9" y="3" width="2" height="15" fill="#ff6d00" opacity="0.45"/><rect x="5" y="5" width="1" height="11" fill="#ff6d00" opacity="0.3"/><rect x="14" y="5" width="1" height="11" fill="#ff6d00" opacity="0.3"/><rect x="4" y="1" width="5" height="2" fill="#fff" opacity="0.75"/></g><g transform="translate(50,110) scale(0.66)"><rect x="9" y="-5" width="2" height="5" fill="#43a047"/><rect x="11" y="-4" width="5" height="3" fill="#66bb6a" opacity="0.8"/><rect x="4" y="0" width="12" height="3" fill="#e65100"/><rect x="2" y="3" width="16" height="3" fill="#e65100" opacity="0.9"/><rect x="0" y="6" width="20" height="3" fill="#e65100"/><rect x="0" y="9" width="20" height="3" fill="#e65100" opacity="0.9"/><rect x="0" y="12" width="20" height="3" fill="#e65100"/><rect x="2" y="15" width="16" height="3" fill="#e65100" opacity="0.9"/><rect x="4" y="18" width="12" height="3" fill="#e65100"/><rect x="9" y="3" width="2" height="15" fill="#ff6d00" opacity="0.45"/><rect x="5" y="5" width="1" height="11" fill="#ff6d00" opacity="0.3"/><rect x="14" y="5" width="1" height="11" fill="#ff6d00" opacity="0.3"/><rect x="4" y="1" width="5" height="2" fill="#fff" opacity="0.75"/></g><g transform="translate(155,90) scale(0.51)"><rect x="9" y="-5" width="2" height="5" fill="#43a047"/><rect x="11" y="-4" width="5" height="3" fill="#66bb6a" opacity="0.8"/><rect x="4" y="0" width="12" height="3" fill="#e65100"/><rect x="2" y="3" width="16" height="3" fill="#e65100" opacity="0.9"/><rect x="0" y="6" width="20" height="3" fill="#e65100"/><rect x="0" y="9" width="20" height="3" fill="#e65100" opacity="0.9"/><rect x="0" y="12" width="20" height="3" fill="#e65100"/><rect x="2" y="15" width="16" height="3" fill="#e65100" opacity="0.9"/><rect x="4" y="18" width="12" height="3" fill="#e65100"/><rect x="9" y="3" width="2" height="15" fill="#ff6d00" opacity="0.45"/><rect x="5" y="5" width="1" height="11" fill="#ff6d00" opacity="0.3"/><rect x="14" y="5" width="1" height="11" fill="#ff6d00" opacity="0.3"/><rect x="4" y="1" width="5" height="2" fill="#fff" opacity="0.75"/></g><g transform="translate(260,100) scale(0.6)"><rect x="9" y="-5" width="2" height="5" fill="#43a047"/><rect x="11" y="-4" width="5" height="3" fill="#66bb6a" opacity="0.8"/><rect x="4" y="0" width="12" height="3" fill="#e65100"/><rect x="2" y="3" width="16" height="3" fill="#e65100" opacity="0.9"/><rect x="0" y="6" width="20" height="3" fill="#e65100"/><rect x="0" y="9" width="20" height="3" fill="#e65100" opacity="0.9"/><rect x="0" y="12" width="20" height="3" fill="#e65100"/><rect x="2" y="15" width="16" height="3" fill="#e65100" opacity="0.9"/><rect x="4" y="18" width="12" height="3" fill="#e65100"/><rect x="9" y="3" width="2" height="15" fill="#ff6d00" opacity="0.45"/><rect x="5" y="5" width="1" height="11" fill="#ff6d00" opacity="0.3"/><rect x="14" y="5" width="1" height="11" fill="#ff6d00" opacity="0.3"/><rect x="4" y="1" width="5" height="2" fill="#fff" opacity="0.75"/></g><g transform="translate(360,130) scale(0.54)"><rect x="9" y="-5" width="2" height="5" fill="#43a047"/><rect x="11" y="-4" width="5" height="3" fill="#66bb6a" opacity="0.8"/><rect x="4" y="0" width="12" height="3" fill="#e65100"/><rect x="2" y="3" width="16" height="3" fill="#e65100" opacity="0.9"/><rect x="0" y="6" width="20" height="3" fill="#e65100"/><rect x="0" y="9" width="20" height="3" fill="#e65100" opacity="0.9"/><rect x="0" y="12" width="20" height="3" fill="#e65100"/><rect x="2" y="15" width="16" height="3" fill="#e65100" opacity="0.9"/><rect x="4" y="18" width="12" height="3" fill="#e65100"/><rect x="9" y="3" width="2" height="15" fill="#ff6d00" opacity="0.45"/><rect x="5" y="5" width="1" height="11" fill="#ff6d00" opacity="0.3"/><rect x="14" y="5" width="1" height="11" fill="#ff6d00" opacity="0.3"/><rect x="4" y="1" width="5" height="2" fill="#fff" opacity="0.75"/></g><g transform="translate(10,175) scale(0.6)"><rect x="9" y="-5" width="2" height="5" fill="#43a047"/><rect x="11" y="-4" width="5" height="3" fill="#66bb6a" opacity="0.8"/><rect x="4" y="0" width="12" height="3" fill="#e65100"/><rect x="2" y="3" width="16" height="3" fill="#e65100" opacity="0.9"/><rect x="0" y="6" width="20" height="3" fill="#e65100"/><rect x="0" y="9" width="20" height="3" fill="#e65100" opacity="0.9"/><rect x="0" y="12" width="20" height="3" fill="#e65100"/><rect x="2" y="15" width="16" height="3" fill="#e65100" opacity="0.9"/><rect x="4" y="18" width="12" height="3" fill="#e65100"/><rect x="9" y="3" width="2" height="15" fill="#ff6d00" opacity="0.45"/><rect x="5" y="5" width="1" height="11" fill="#ff6d00" opacity="0.3"/><rect x="14" y="5" width="1" height="11" fill="#ff6d00" opacity="0.3"/><rect x="4" y="1" width="5" height="2" fill="#fff" opacity="0.75"/></g><g transform="translate(115,160) scale(0.66)"><rect x="9" y="-5" width="2" height="5" fill="#43a047"/><rect x="11" y="-4" width="5" height="3" fill="#66bb6a" opacity="0.8"/><rect x="4" y="0" width="12" height="3" fill="#e65100"/><rect x="2" y="3" width="16" height="3" fill="#e65100" opacity="0.9"/><rect x="0" y="6" width="20" height="3" fill="#e65100"/><rect x="0" y="9" width="20" height="3" fill="#e65100" opacity="0.9"/><rect x="0" y="12" width="20" height="3" fill="#e65100"/><rect x="2" y="15" width="16" height="3" fill="#e65100" opacity="0.9"/><rect x="4" y="18" width="12" height="3" fill="#e65100"/><rect x="9" y="3" width="2" height="15" fill="#ff6d00" opacity="0.45"/><rect x="5" y="5" width="1" height="11" fill="#ff6d00" opacity="0.3"/><rect x="14" y="5" width="1" height="11" fill="#ff6d00" opacity="0.3"/><rect x="4" y="1" width="5" height="2" fill="#fff" opacity="0.75"/></g><g transform="translate(225,150) scale(0.51)"><rect x="9" y="-5" width="2" height="5" fill="#43a047"/><rect x="11" y="-4" width="5" height="3" fill="#66bb6a" opacity="0.8"/><rect x="4" y="0" width="12" height="3" fill="#e65100"/><rect x="2" y="3" width="16" height="3" fill="#e65100" opacity="0.9"/><rect x="0" y="6" width="20" height="3" fill="#e65100"/><rect x="0" y="9" width="20" height="3" fill="#e65100" opacity="0.9"/><rect x="0" y="12" width="20" height="3" fill="#e65100"/><rect x="2" y="15" width="16" height="3" fill="#e65100" opacity="0.9"/><rect x="4" y="18" width="12" height="3" fill="#e65100"/><rect x="9" y="3" width="2" height="15" fill="#ff6d00" opacity="0.45"/><rect x="5" y="5" width="1" height="11" fill="#ff6d00" opacity="0.3"/><rect x="14" y="5" width="1" height="11" fill="#ff6d00" opacity="0.3"/><rect x="4" y="1" width="5" height="2" fill="#fff" opacity="0.75"/></g><g transform="translate(330,170) scale(0.6)"><rect x="9" y="-5" width="2" height="5" fill="#43a047"/><rect x="11" y="-4" width="5" height="3" fill="#66bb6a" opacity="0.8"/><rect x="4" y="0" width="12" height="3" fill="#e65100"/><rect x="2" y="3" width="16" height="3" fill="#e65100" opacity="0.9"/><rect x="0" y="6" width="20" height="3" fill="#e65100"/><rect x="0" y="9" width="20" height="3" fill="#e65100" opacity="0.9"/><rect x="0" y="12" width="20" height="3" fill="#e65100"/><rect x="2" y="15" width="16" height="3" fill="#e65100" opacity="0.9"/><rect x="4" y="18" width="12" height="3" fill="#e65100"/><rect x="9" y="3" width="2" height="15" fill="#ff6d00" opacity="0.45"/><rect x="5" y="5" width="1" height="11" fill="#ff6d00" opacity="0.3"/><rect x="14" y="5" width="1" height="11" fill="#ff6d00" opacity="0.3"/><rect x="4" y="1" width="5" height="2" fill="#fff" opacity="0.75"/></g><g transform="translate(375,215) scale(0.54)"><rect x="9" y="-5" width="2" height="5" fill="#43a047"/><rect x="11" y="-4" width="5" height="3" fill="#66bb6a" opacity="0.8"/><rect x="4" y="0" width="12" height="3" fill="#e65100"/><rect x="2" y="3" width="16" height="3" fill="#e65100" opacity="0.9"/><rect x="0" y="6" width="20" height="3" fill="#e65100"/><rect x="0" y="9" width="20" height="3" fill="#e65100" opacity="0.9"/><rect x="0" y="12" width="20" height="3" fill="#e65100"/><rect x="2" y="15" width="16" height="3" fill="#e65100" opacity="0.9"/><rect x="4" y="18" width="12" height="3" fill="#e65100"/><rect x="9" y="3" width="2" height="15" fill="#ff6d00" opacity="0.45"/><rect x="5" y="5" width="1" height="11" fill="#ff6d00" opacity="0.3"/><rect x="14" y="5" width="1" height="11" fill="#ff6d00" opacity="0.3"/><rect x="4" y="1" width="5" height="2" fill="#fff" opacity="0.75"/></g><g transform="translate(50,235) scale(0.66)"><rect x="9" y="-5" width="2" height="5" fill="#43a047"/><rect x="11" y="-4" width="5" height="3" fill="#66bb6a" opacity="0.8"/><rect x="4" y="0" width="12" height="3" fill="#e65100"/><rect x="2" y="3" width="16" height="3" fill="#e65100" opacity="0.9"/><rect x="0" y="6" width="20" height="3" fill="#e65100"/><rect x="0" y="9" width="20" height="3" fill="#e65100" opacity="0.9"/><rect x="0" y="12" width="20" height="3" fill="#e65100"/><rect x="2" y="15" width="16" height="3" fill="#e65100" opacity="0.9"/><rect x="4" y="18" width="12" height="3" fill="#e65100"/><rect x="9" y="3" width="2" height="15" fill="#ff6d00" opacity="0.45"/><rect x="5" y="5" width="1" height="11" fill="#ff6d00" opacity="0.3"/><rect x="14" y="5" width="1" height="11" fill="#ff6d00" opacity="0.3"/><rect x="4" y="1" width="5" height="2" fill="#fff" opacity="0.75"/></g><g transform="translate(155,225) scale(0.51)"><rect x="9" y="-5" width="2" height="5" fill="#43a047"/><rect x="11" y="-4" width="5" height="3" fill="#66bb6a" opacity="0.8"/><rect x="4" y="0" width="12" height="3" fill="#e65100"/><rect x="2" y="3" width="16" height="3" fill="#e65100" opacity="0.9"/><rect x="0" y="6" width="20" height="3" fill="#e65100"/><rect x="0" y="9" width="20" height="3" fill="#e65100" opacity="0.9"/><rect x="0" y="12" width="20" height="3" fill="#e65100"/><rect x="2" y="15" width="16" height="3" fill="#e65100" opacity="0.9"/><rect x="4" y="18" width="12" height="3" fill="#e65100"/><rect x="9" y="3" width="2" height="15" fill="#ff6d00" opacity="0.45"/><rect x="5" y="5" width="1" height="11" fill="#ff6d00" opacity="0.3"/><rect x="14" y="5" width="1" height="11" fill="#ff6d00" opacity="0.3"/><rect x="4" y="1" width="5" height="2" fill="#fff" opacity="0.75"/></g><g transform="translate(260,240) scale(0.6)"><rect x="9" y="-5" width="2" height="5" fill="#43a047"/><rect x="11" y="-4" width="5" height="3" fill="#66bb6a" opacity="0.8"/><rect x="4" y="0" width="12" height="3" fill="#e65100"/><rect x="2" y="3" width="16" height="3" fill="#e65100" opacity="0.9"/><rect x="0" y="6" width="20" height="3" fill="#e65100"/><rect x="0" y="9" width="20" height="3" fill="#e65100" opacity="0.9"/><rect x="0" y="12" width="20" height="3" fill="#e65100"/><rect x="2" y="15" width="16" height="3" fill="#e65100" opacity="0.9"/><rect x="4" y="18" width="12" height="3" fill="#e65100"/><rect x="9" y="3" width="2" height="15" fill="#ff6d00" opacity="0.45"/><rect x="5" y="5" width="1" height="11" fill="#ff6d00" opacity="0.3"/><rect x="14" y="5" width="1" height="11" fill="#ff6d00" opacity="0.3"/><rect x="4" y="1" width="5" height="2" fill="#fff" opacity="0.75"/></g><g transform="translate(360,260) scale(0.66)"><rect x="9" y="-5" width="2" height="5" fill="#43a047"/><rect x="11" y="-4" width="5" height="3" fill="#66bb6a" opacity="0.8"/><rect x="4" y="0" width="12" height="3" fill="#e65100"/><rect x="2" y="3" width="16" height="3" fill="#e65100" opacity="0.9"/><rect x="0" y="6" width="20" height="3" fill="#e65100"/><rect x="0" y="9" width="20" height="3" fill="#e65100" opacity="0.9"/><rect x="0" y="12" width="20" height="3" fill="#e65100"/><rect x="2" y="15" width="16" height="3" fill="#e65100" opacity="0.9"/><rect x="4" y="18" width="12" height="3" fill="#e65100"/><rect x="9" y="3" width="2" height="15" fill="#ff6d00" opacity="0.45"/><rect x="5" y="5" width="1" height="11" fill="#ff6d00" opacity="0.3"/><rect x="14" y="5" width="1" height="11" fill="#ff6d00" opacity="0.3"/><rect x="4" y="1" width="5" height="2" fill="#fff" opacity="0.75"/></g><g transform="translate(15,300) scale(0.54)"><rect x="9" y="-5" width="2" height="5" fill="#43a047"/><rect x="11" y="-4" width="5" height="3" fill="#66bb6a" opacity="0.8"/><rect x="4" y="0" width="12" height="3" fill="#e65100"/><rect x="2" y="3" width="16" height="3" fill="#e65100" opacity="0.9"/><rect x="0" y="6" width="20" height="3" fill="#e65100"/><rect x="0" y="9" width="20" height="3" fill="#e65100" opacity="0.9"/><rect x="0" y="12" width="20" height="3" fill="#e65100"/><rect x="2" y="15" width="16" height="3" fill="#e65100" opacity="0.9"/><rect x="4" y="18" width="12" height="3" fill="#e65100"/><rect x="9" y="3" width="2" height="15" fill="#ff6d00" opacity="0.45"/><rect x="5" y="5" width="1" height="11" fill="#ff6d00" opacity="0.3"/><rect x="14" y="5" width="1" height="11" fill="#ff6d00" opacity="0.3"/><rect x="4" y="1" width="5" height="2" fill="#fff" opacity="0.75"/></g><g transform="translate(120,290) scale(0.6)"><rect x="9" y="-5" width="2" height="5" fill="#43a047"/><rect x="11" y="-4" width="5" height="3" fill="#66bb6a" opacity="0.8"/><rect x="4" y="0" width="12" height="3" fill="#e65100"/><rect x="2" y="3" width="16" height="3" fill="#e65100" opacity="0.9"/><rect x="0" y="6" width="20" height="3" fill="#e65100"/><rect x="0" y="9" width="20" height="3" fill="#e65100" opacity="0.9"/><rect x="0" y="12" width="20" height="3" fill="#e65100"/><rect x="2" y="15" width="16" height="3" fill="#e65100" opacity="0.9"/><rect x="4" y="18" width="12" height="3" fill="#e65100"/><rect x="9" y="3" width="2" height="15" fill="#ff6d00" opacity="0.45"/><rect x="5" y="5" width="1" height="11" fill="#ff6d00" opacity="0.3"/><rect x="14" y="5" width="1" height="11" fill="#ff6d00" opacity="0.3"/><rect x="4" y="1" width="5" height="2" fill="#fff" opacity="0.75"/></g><g transform="translate(230,305) scale(0.66)"><rect x="9" y="-5" width="2" height="5" fill="#43a047"/><rect x="11" y="-4" width="5" height="3" fill="#66bb6a" opacity="0.8"/><rect x="4" y="0" width="12" height="3" fill="#e65100"/><rect x="2" y="3" width="16" height="3" fill="#e65100" opacity="0.9"/><rect x="0" y="6" width="20" height="3" fill="#e65100"/><rect x="0" y="9" width="20" height="3" fill="#e65100" opacity="0.9"/><rect x="0" y="12" width="20" height="3" fill="#e65100"/><rect x="2" y="15" width="16" height="3" fill="#e65100" opacity="0.9"/><rect x="4" y="18" width="12" height="3" fill="#e65100"/><rect x="9" y="3" width="2" height="15" fill="#ff6d00" opacity="0.45"/><rect x="5" y="5" width="1" height="11" fill="#ff6d00" opacity="0.3"/><rect x="14" y="5" width="1" height="11" fill="#ff6d00" opacity="0.3"/><rect x="4" y="1" width="5" height="2" fill="#fff" opacity="0.75"/></g><g transform="translate(335,320) scale(0.51)"><rect x="9" y="-5" width="2" height="5" fill="#43a047"/><rect x="11" y="-4" width="5" height="3" fill="#66bb6a" opacity="0.8"/><rect x="4" y="0" width="12" height="3" fill="#e65100"/><rect x="2" y="3" width="16" height="3" fill="#e65100" opacity="0.9"/><rect x="0" y="6" width="20" height="3" fill="#e65100"/><rect x="0" y="9" width="20" height="3" fill="#e65100" opacity="0.9"/><rect x="0" y="12" width="20" height="3" fill="#e65100"/><rect x="2" y="15" width="16" height="3" fill="#e65100" opacity="0.9"/><rect x="4" y="18" width="12" height="3" fill="#e65100"/><rect x="9" y="3" width="2" height="15" fill="#ff6d00" opacity="0.45"/><rect x="5" y="5" width="1" height="11" fill="#ff6d00" opacity="0.3"/><rect x="14" y="5" width="1" height="11" fill="#ff6d00" opacity="0.3"/><rect x="4" y="1" width="5" height="2" fill="#fff" opacity="0.75"/></g><g transform="translate(60,355) scale(0.6)"><rect x="9" y="-5" width="2" height="5" fill="#43a047"/><rect x="11" y="-4" width="5" height="3" fill="#66bb6a" opacity="0.8"/><rect x="4" y="0" width="12" height="3" fill="#e65100"/><rect x="2" y="3" width="16" height="3" fill="#e65100" opacity="0.9"/><rect x="0" y="6" width="20" height="3" fill="#e65100"/><rect x="0" y="9" width="20" height="3" fill="#e65100" opacity="0.9"/><rect x="0" y="12" width="20" height="3" fill="#e65100"/><rect x="2" y="15" width="16" height="3" fill="#e65100" opacity="0.9"/><rect x="4" y="18" width="12" height="3" fill="#e65100"/><rect x="9" y="3" width="2" height="15" fill="#ff6d00" opacity="0.45"/><rect x="5" y="5" width="1" height="11" fill="#ff6d00" opacity="0.3"/><rect x="14" y="5" width="1" height="11" fill="#ff6d00" opacity="0.3"/><rect x="4" y="1" width="5" height="2" fill="#fff" opacity="0.75"/></g><g transform="translate(175,345) scale(0.54)"><rect x="9" y="-5" width="2" height="5" fill="#43a047"/><rect x="11" y="-4" width="5" height="3" fill="#66bb6a" opacity="0.8"/><rect x="4" y="0" width="12" height="3" fill="#e65100"/><rect x="2" y="3" width="16" height="3" fill="#e65100" opacity="0.9"/><rect x="0" y="6" width="20" height="3" fill="#e65100"/><rect x="0" y="9" width="20" height="3" fill="#e65100" opacity="0.9"/><rect x="0" y="12" width="20" height="3" fill="#e65100"/><rect x="2" y="15" width="16" height="3" fill="#e65100" opacity="0.9"/><rect x="4" y="18" width="12" height="3" fill="#e65100"/><rect x="9" y="3" width="2" height="15" fill="#ff6d00" opacity="0.45"/><rect x="5" y="5" width="1" height="11" fill="#ff6d00" opacity="0.3"/><rect x="14" y="5" width="1" height="11" fill="#ff6d00" opacity="0.3"/><rect x="4" y="1" width="5" height="2" fill="#fff" opacity="0.75"/></g><g transform="translate(290,365) scale(0.66)"><rect x="9" y="-5" width="2" height="5" fill="#43a047"/><rect x="11" y="-4" width="5" height="3" fill="#66bb6a" opacity="0.8"/><rect x="4" y="0" width="12" height="3" fill="#e65100"/><rect x="2" y="3" width="16" height="3" fill="#e65100" opacity="0.9"/><rect x="0" y="6" width="20" height="3" fill="#e65100"/><rect x="0" y="9" width="20" height="3" fill="#e65100" opacity="0.9"/><rect x="0" y="12" width="20" height="3" fill="#e65100"/><rect x="2" y="15" width="16" height="3" fill="#e65100" opacity="0.9"/><rect x="4" y="18" width="12" height="3" fill="#e65100"/><rect x="9" y="3" width="2" height="15" fill="#ff6d00" opacity="0.45"/><rect x="5" y="5" width="1" height="11" fill="#ff6d00" opacity="0.3"/><rect x="14" y="5" width="1" height="11" fill="#ff6d00" opacity="0.3"/><rect x="4" y="1" width="5" height="2" fill="#fff" opacity="0.75"/></g>
  </g>
</svg>