<svg xmlns="http://www.w3.org/2000/svg" viewBox="0 0 400 400" width="400" height="400">
  <rect width="400" height="400" fill="#fff8e1"/>
  <defs><filter id="glow" x="-80%" y="-80%" width="260%" height="260%"><feGaussianBlur stdDeviation="2" result="b"/><feMerge><feMergeNode in="b"/><feMergeNode in="SourceGraphic"/></feMerge></filter></defs>
  <g filter="url(#glow)" opacity="0.42">
  <g transform="translate(15,10) scale(0.55)"><rect x="1" y="0" width="3" height="5" fill="#66bb6a" opacity="0.8"/><rect x="6" y="0" width="3" height="7" fill="#43a047"/><rect x="11" y="0" width="3" height="6" fill="#66bb6a" opacity="0.8"/><rect x="16" y="0" width="3" height="5" fill="#43a047" opacity="0.7"/><rect x="0" y="7" width="4" height="4" fill="#f9a825"/><rect x="4" y="7" width="4" height="4" fill="#f9a825" opacity="0.7"/><rect x="8" y="7" width="4" height="4" fill="#f9a825"/><rect x="12" y="7" width="4" height="4" fill="#f9a825" opacity="0.7"/><rect x="0" y="11" width="4" height="4" fill="#f9a825" opacity="0.7"/><rect x="4" y="11" width="4" height="4" fill="#f9a825"/><rect x="8" y="11" width="4" height="4" fill="#f9a825" opacity="0.7"/><rect x="12" y="11" width="4" height="4" fill="#f9a825"/><rect x="0" y="15" width="4" height="4" fill="#f9a825"/><rect x="4" y="15" width="4" height="4" fill="#f9a825" opacity="0.7"/><rect x="8" y="15" width="4" height="4" fill="#f9a825"/><rect x="12" y="15" width="4" height="4" fill="#f9a825" opacity="0.7"/><rect x="4" y="19" width="8" height="3" fill="#f9a825" opacity="0.5"/></g><g transform="translate(115,25) scale(0.5)"><rect x="1" y="0" width="3" height="5" fill="#66bb6a" opacity="0.8"/><rect x="6" y="0" width="3" height="7" fill="#43a047"/><rect x="11" y="0" width="3" height="6" fill="#66bb6a" opacity="0.8"/><rect x="16" y="0" width="3" height="5" fill="#43a047" opacity="0.7"/><rect x="0" y="7" width="4" height="4" fill="#f9a825"/><rect x="4" y="7" width="4" height="4" fill="#f9a825" opacity="0.7"/><rect x="8" y="7" width="4" height="4" fill="#f9a825"/><rect x="12" y="7" width="4" height="4" fill="#f9a825" opacity="0.7"/><rect x="0" y="11" width="4" height="4" fill="#f9a825" opacity="0.7"/><rect x="4" y="11" width="4" height="4" fill="#f9a825"/><rect x="8" y="11" width="4" height="4" fill="#f9a825" opacity="0.7"/><rect x="12" y="11" width="4" height="4" fill="#f9a825"/><rect x="0" y="15" width="4" height="4" fill="#f9a825"/><rect x="4" y="15" width="4" height="4" fill="#f9a825" opacity="0.7"/><rect x="8" y="15" width="4" height="4" fill="#f9a825"/><rect x="12" y="15" width="4" height="4" fill="#f9a825" opacity="0.7"/><rect x="4" y="19" width="8" height="3" fill="#f9a825" opacity="0.5"/></g><g transform="translate(230,5) scale(0.62)"><rect x="1" y="0" width="3" height="5" fill="#66bb6a" opacity="0.8"/><rect x="6" y="0" width="3" height="7" fill="#43a047"/><rect x="11" y="0" width="3" height="6" fill="#66bb6a" opacity="0.8"/><rect x="16" y="0" width="3" height="5" fill="#43a047" opacity="0.7"/><rect x="0" y="7" width="4" height="4" fill="#f9a825"/><rect x="4" y="7" width="4" height="4" fill="#f9a825" opacity="0.7"/><rect x="8" y="7" width="4" height="4" fill="#f9a825"/><rect x="12" y="7" width="4" height="4" fill="#f9a825" opacity="0.7"/><rect x="0" y="11" width="4" height="4" fill="#f9a825" opacity="0.7"/><rect x="4" y="11" width="4" height="4" fill="#f9a825"/><rect x="8" y="11" width="4" height="4" fill="#f9a825" opacity="0.7"/><rect x="12" y="11" width="4" height="4" fill="#f9a825"/><rect x="0" y="15" width="4" height="4" fill="#f9a825"/><rect x="4" y="15" width="4" height="4" fill="#f9a825" opacity="0.7"/><rect x="8" y="15" width="4" height="4" fill="#f9a825"/><rect x="12" y="15" width="4" height="4" fill="#f9a825" opacity="0.7"/><rect x="4" y="19" width="8" height="3" fill="#f9a825" opacity="0.5"/></g><g transform="translate(335,20) scale(0.53)"><rect x="1" y="0" width="3" height="5" fill="#66bb6a" opacity="0.8"/><rect x="6" y="0" width="3" height="7" fill="#43a047"/><rect x="11" y="0" width="3" height="6" fill="#66bb6a" opacity="0.8"/><rect x="16" y="0" width="3" height="5" fill="#43a047" opacity="0.7"/><rect x="0" y="7" width="4" height="4" fill="#f9a825"/><rect x="4" y="7" width="4" height="4" fill="#f9a825" opacity="0.7"/><rect x="8" y="7" width="4" height="4" fill="#f9a825"/><rect x="12" y="7" width="4" height="4" fill="#f9a825" opacity="0.7"/><rect x="0" y="11" width="4" height="4" fill="#f9a825" opacity="0.7"/><rect x="4" y="11" width="4" height="4" fill="#f9a825"/><rect x="8" y="11" width="4" height="4" fill="#f9a825" opacity="0.7"/><rect x="12" y="11" width="4" height="4" fill="#f9a825"/><rect x="0" y="15" width="4" height="4" fill="#f9a825"/><rect x="4" y="15" width="4" height="4" fill="#f9a825" opacity="0.7"/><rect x="8" y="15" width="4" height="4" fill="#f9a825"/><rect x="12" y="15" width="4" height="4" fill="#f9a825" opacity="0.7"/><rect x="4" y="19" width="8" height="3" fill="#f9a825" opacity="0.5"/></g><g transform="translate(370,80) scale(0.55)"><rect x="1" y="0" width="3" height="5" fill="#66bb6a" opacity="0.8"/><rect x="6" y="0" width="3" height="7" fill="#43a047"/><rect x="11" y="0" width="3" height="6" fill="#66bb6a" opacity="0.8"/><rect x="16" y="0" width="3" height="5" fill="#43a047" opacity="0.7"/><rect x="0" y="7" width="4" height="4" fill="#f9a825"/><rect x="4" y="7" width="4" height="4" fill="#f9a825" opacity="0.7"/><rect x="8" y="7" width="4" height="4" fill="#f9a825"/><rect x="12" y="7" width="4" height="4" fill="#f9a825" opacity="0.7"/><rect x="0" y="11" width="4" height="4" fill="#f9a825" opacity="0.7"/><rect x="4" y="11" width="4" height="4" fill="#f9a825"/><rect x="8" y="11" width="4" height="4" fill="#f9a825" opacity="0.7"/><rect x="12" y="11" width="4" height="4" fill="#f9a825"/><rect x="0" y="15" width="4" height="4" fill="#f9a825"/><rect x="4" y="15" width="4" height="4" fill="#f9a825" opacity="0.7"/><rect x="8" y="15" width="4" height="4" fill="#f9a825"/><rect x="12" y="15" width="4" height="4" fill="#f9a825" opacity="0.7"/><rect x="4" y="19" width="8" height="3" fill="#f9a825" opacity="0.5"/></g><g transform="translate(50,110) scale(0.62)"><rect x="1" y="0" width="3" height="5" fill="#66bb6a" opacity="0.8"/><rect x="6" y="0" width="3" height="7" fill="#43a047"/><rect x="11" y="0" width="3" height="6" fill="#66bb6a" opacity="0.8"/><rect x="16" y="0" width="3" height="5" fill="#43a047" opacity="0.7"/><rect x="0" y="7" width="4" height="4" fill="#f9a825"/><rect x="4" y="7" width="4" height="4" fill="#f9a825" opacity="0.7"/><rect x="8" y="7" width="4" height="4" fill="#f9a825"/><rect x="12" y="7" width="4" height="4" fill="#f9a825" opacity="0.7"/><rect x="0" y="11" width="4" height="4" fill="#f9a825" opacity="0.7"/><rect x="4" y="11" width="4" height="4" fill="#f9a825"/><rect x="8" y="11" width="4" height="4" fill="#f9a825" opacity="0.7"/><rect x="12" y="11" width="4" height="4" fill="#f9a825"/><rect x="0" y="15" width="4" height="4" fill="#f9a825"/><rect x="4" y="15" width="4" height="4" fill="#f9a825" opacity="0.7"/><rect x="8" y="15" width="4" height="4" fill="#f9a825"/><rect x="12" y="15" width="4" height="4" fill="#f9a825" opacity="0.7"/><rect x="4" y="19" width="8" height="3" fill="#f9a825" opacity="0.5"/></g><g transform="translate(160,95) scale(0.5)"><rect x="1" y="0" width="3" height="5" fill="#66bb6a" opacity="0.8"/><rect x="6" y="0" width="3" height="7" fill="#43a047"/><rect x="11" y="0" width="3" height="6" fill="#66bb6a" opacity="0.8"/><rect x="16" y="0" width="3" height="5" fill="#43a047" opacity="0.7"/><rect x="0" y="7" width="4" height="4" fill="#f9a825"/><rect x="4" y="7" width="4" height="4" fill="#f9a825" opacity="0.7"/><rect x="8" y="7" width="4" height="4" fill="#f9a825"/><rect x="12" y="7" width="4" height="4" fill="#f9a825" opacity="0.7"/><rect x="0" y="11" width="4" height="4" fill="#f9a825" opacity="0.7"/><rect x="4" y="11" width="4" height="4" fill="#f9a825"/><rect x="8" y="11" width="4" height="4" fill="#f9a825" opacity="0.7"/><rect x="12" y="11" width="4" height="4" fill="#f9a825"/><rect x="0" y="15" width="4" height="4" fill="#f9a825"/><rect x="4" y="15" width="4" height="4" fill="#f9a825" opacity="0.7"/><rect x="8" y="15" width="4" height="4" fill="#f9a825"/><rect x="12" y="15" width="4" height="4" fill="#f9a825" opacity="0.7"/><rect x="4" y="19" width="8" height="3" fill="#f9a825" opacity="0.5"/></g><g transform="translate(270,105) scale(0.55)"><rect x="1" y="0" width="3" height="5" fill="#66bb6a" opacity="0.8"/><rect x="6" y="0" width="3" height="7" fill="#43a047"/><rect x="11" y="0" width="3" height="6" fill="#66bb6a" opacity="0.8"/><rect x="16" y="0" width="3" height="5" fill="#43a047" opacity="0.7"/><rect x="0" y="7" width="4" height="4" fill="#f9a825"/><rect x="4" y="7" width="4" height="4" fill="#f9a825" opacity="0.7"/><rect x="8" y="7" width="4" height="4" fill="#f9a825"/><rect x="12" y="7" width="4" height="4" fill="#f9a825" opacity="0.7"/><rect x="0" y="11" width="4" height="4" fill="#f9a825" opacity="0.7"/><rect x="4" y="11" width="4" height="4" fill="#f9a825"/><rect x="8" y="11" width="4" height="4" fill="#f9a825" opacity="0.7"/><rect x="12" y="11" width="4" height="4" fill="#f9a825"/><rect x="0" y="15" width="4" height="4" fill="#f9a825"/><rect x="4" y="15" width="4" height="4" fill="#f9a825" opacity="0.7"/><rect x="8" y="15" width="4" height="4" fill="#f9a825"/><rect x="12" y="15" width="4" height="4" fill="#f9a825" opacity="0.7"/><rect x="4" y="19" width="8" height="3" fill="#f9a825" opacity="0.5"/></g><g transform="translate(360,145) scale(0.53)"><rect x="1" y="0" width="3" height="5" fill="#66bb6a" opacity="0.8"/><rect x="6" y="0" width="3" height="7" fill="#43a047"/><rect x="11" y="0" width="3" height="6" fill="#66bb6a" opacity="0.8"/><rect x="16" y="0" width="3" height="5" fill="#43a047" opacity="0.7"/><rect x="0" y="7" width="4" height="4" fill="#f9a825"/><rect x="4" y="7" width="4" height="4" fill="#f9a825" opacity="0.7"/><rect x="8" y="7" width="4" height="4" fill="#f9a825"/><rect x="12" y="7" width="4" height="4" fill="#f9a825" opacity="0.7"/><rect x="0" y="11" width="4" height="4" fill="#f9a825" opacity="0.7"/><rect x="4" y="11" width="4" height="4" fill="#f9a825"/><rect x="8" y="11" width="4" height="4" fill="#f9a825" opacity="0.7"/><rect x="12" y="11" width="4" height="4" fill="#f9a825"/><rect x="0" y="15" width="4" height="4" fill="#f9a825"/><rect x="4" y="15" width="4" height="4" fill="#f9a825" opacity="0.7"/><rect x="8" y="15" width="4" height="4" fill="#f9a825"/><rect x="12" y="15" width="4" height="4" fill="#f9a825" opacity="0.7"/><rect x="4" y="19" width="8" height="3" fill="#f9a825" opacity="0.5"/></g><g transform="translate(10,180) scale(0.55)"><rect x="1" y="0" width="3" height="5" fill="#66bb6a" opacity="0.8"/><rect x="6" y="0" width="3" height="7" fill="#43a047"/><rect x="11" y="0" width="3" height="6" fill="#66bb6a" opacity="0.8"/><rect x="16" y="0" width="3" height="5" fill="#43a047" opacity="0.7"/><rect x="0" y="7" width="4" height="4" fill="#f9a825"/><rect x="4" y="7" width="4" height="4" fill="#f9a825" opacity="0.7"/><rect x="8" y="7" width="4" height="4" fill="#f9a825"/><rect x="12" y="7" width="4" height="4" fill="#f9a825" opacity="0.7"/><rect x="0" y="11" width="4" height="4" fill="#f9a825" opacity="0.7"/><rect x="4" y="11" width="4" height="4" fill="#f9a825"/><rect x="8" y="11" width="4" height="4" fill="#f9a825" opacity="0.7"/><rect x="12" y="11" width="4" height="4" fill="#f9a825"/><rect x="0" y="15" width="4" height="4" fill="#f9a825"/><rect x="4" y="15" width="4" height="4" fill="#f9a825" opacity="0.7"/><rect x="8" y="15" width="4" height="4" fill="#f9a825"/><rect x="12" y="15" width="4" height="4" fill="#f9a825" opacity="0.7"/><rect x="4" y="19" width="8" height="3" fill="#f9a825" opacity="0.5"/></g><g transform="translate(120,165) scale(0.62)"><rect x="1" y="0" width="3" height="5" fill="#66bb6a" opacity="0.8"/><rect x="6" y="0" width="3" height="7" fill="#43a047"/><rect x="11" y="0" width="3" height="6" fill="#66bb6a" opacity="0.8"/><rect x="16" y="0" width="3" height="5" fill="#43a047" opacity="0.7"/><rect x="0" y="7" width="4" height="4" fill="#f9a825"/><rect x="4" y="7" width="4" height="4" fill="#f9a825" opacity="0.7"/><rect x="8" y="7" width="4" height="4" fill="#f9a825"/><rect x="12" y="7" width="4" height="4" fill="#f9a825" opacity="0.7"/><rect x="0" y="11" width="4" height="4" fill="#f9a825" opacity="0.7"/><rect x="4" y="11" width="4" height="4" fill="#f9a825"/><rect x="8" y="11" width="4" height="4" fill="#f9a825" opacity="0.7"/><rect x="12" y="11" width="4" height="4" fill="#f9a825"/><rect x="0" y="15" width="4" height="4" fill="#f9a825"/><rect x="4" y="15" width="4" height="4" fill="#f9a825" opacity="0.7"/><rect x="8" y="15" width="4" height="4" fill="#f9a825"/><rect x="12" y="15" width="4" height="4" fill="#f9a825" opacity="0.7"/><rect x="4" y="19" width="8" height="3" fill="#f9a825" opacity="0.5"/></g><g transform="translate(235,155) scale(0.5)"><rect x="1" y="0" width="3" height="5" fill="#66bb6a" opacity="0.8"/><rect x="6" y="0" width="3" height="7" fill="#43a047"/><rect x="11" y="0" width="3" height="6" fill="#66bb6a" opacity="0.8"/><rect x="16" y="0" width="3" height="5" fill="#43a047" opacity="0.7"/><rect x="0" y="7" width="4" height="4" fill="#f9a825"/><rect x="4" y="7" width="4" height="4" fill="#f9a825" opacity="0.7"/><rect x="8" y="7" width="4" height="4" fill="#f9a825"/><rect x="12" y="7" width="4" height="4" fill="#f9a825" opacity="0.7"/><rect x="0" y="11" width="4" height="4" fill="#f9a825" opacity="0.7"/><rect x="4" y="11" width="4" height="4" fill="#f9a825"/><rect x="8" y="11" width="4" height="4" fill="#f9a825" opacity="0.7"/><rect x="12" y="11" width="4" height="4" fill="#f9a825"/><rect x="0" y="15" width="4" height="4" fill="#f9a825"/><rect x="4" y="15" width="4" height="4" fill="#f9a825" opacity="0.7"/><rect x="8" y="15" width="4" height="4" fill="#f9a825"/><rect x="12" y="15" width="4" height="4" fill="#f9a825" opacity="0.7"/><rect x="4" y="19" width="8" height="3" fill="#f9a825" opacity="0.5"/></g><g transform="translate(340,185) scale(0.55)"><rect x="1" y="0" width="3" height="5" fill="#66bb6a" opacity="0.8"/><rect x="6" y="0" width="3" height="7" fill="#43a047"/><rect x="11" y="0" width="3" height="6" fill="#66bb6a" opacity="0.8"/><rect x="16" y="0" width="3" height="5" fill="#43a047" opacity="0.7"/><rect x="0" y="7" width="4" height="4" fill="#f9a825"/><rect x="4" y="7" width="4" height="4" fill="#f9a825" opacity="0.7"/><rect x="8" y="7" width="4" height="4" fill="#f9a825"/><rect x="12" y="7" width="4" height="4" fill="#f9a825" opacity="0.7"/><rect x="0" y="11" width="4" height="4" fill="#f9a825" opacity="0.7"/><rect x="4" y="11" width="4" height="4" fill="#f9a825"/><rect x="8" y="11" width="4" height="4" fill="#f9a825" opacity="0.7"/><rect x="12" y="11" width="4" height="4" fill="#f9a825"/><rect x="0" y="15" width="4" height="4" fill="#f9a825"/><rect x="4" y="15" width="4" height="4" fill="#f9a825" opacity="0.7"/><rect x="8" y="15" width="4" height="4" fill="#f9a825"/><rect x="12" y="15" width="4" height="4" fill="#f9a825" opacity="0.7"/><rect x="4" y="19" width="8" height="3" fill="#f9a825" opacity="0.5"/></g><g transform="translate(375,240) scale(0.53)"><rect x="1" y="0" width="3" height="5" fill="#66bb6a" opacity="0.8"/><rect x="6" y="0" width="3" height="7" fill="#43a047"/><rect x="11" y="0" width="3" height="6" fill="#66bb6a" opacity="0.8"/><rect x="16" y="0" width="3" height="5" fill="#43a047" opacity="0.7"/><rect x="0" y="7" width="4" height="4" fill="#f9a825"/><rect x="4" y="7" width="4" height="4" fill="#f9a825" opacity="0.7"/><rect x="8" y="7" width="4" height="4" fill="#f9a825"/><rect x="12" y="7" width="4" height="4" fill="#f9a825" opacity="0.7"/><rect x="0" y="11" width="4" height="4" fill="#f9a825" opacity="0.7"/><rect x="4" y="11" width="4" height="4" fill="#f9a825"/><rect x="8" y="11" width="4" height="4" fill="#f9a825" opacity="0.7"/><rect x="12" y="11" width="4" height="4" fill="#f9a825"/><rect x="0" y="15" width="4" height="4" fill="#f9a825"/><rect x="4" y="15" width="4" height="4" fill="#f9a825" opacity="0.7"/><rect x="8" y="15" width="4" height="4" fill="#f9a825"/><rect x="12" y="15" width="4" height="4" fill="#f9a825" opacity="0.7"/><rect x="4" y="19" width="8" height="3" fill="#f9a825" opacity="0.5"/></g><g transform="translate(50,250) scale(0.62)"><rect x="1" y="0" width="3" height="5" fill="#66bb6a" opacity="0.8"/><rect x="6" y="0" width="3" height="7" fill="#43a047"/><rect x="11" y="0" width="3" height="6" fill="#66bb6a" opacity="0.8"/><rect x="16" y="0" width="3" height="5" fill="#43a047" opacity="0.7"/><rect x="0" y="7" width="4" height="4" fill="#f9a825"/><rect x="4" y="7" width="4" height="4" fill="#f9a825" opacity="0.7"/><rect x="8" y="7" width="4" height="4" fill="#f9a825"/><rect x="12" y="7" width="4" height="4" fill="#f9a825" opacity="0.7"/><rect x="0" y="11" width="4" height="4" fill="#f9a825" opacity="0.7"/><rect x="4" y="11" width="4" height="4" fill="#f9a825"/><rect x="8" y="11" width="4" height="4" fill="#f9a825" opacity="0.7"/><rect x="12" y="11" width="4" height="4" fill="#f9a825"/><rect x="0" y="15" width="4" height="4" fill="#f9a825"/><rect x="4" y="15" width="4" height="4" fill="#f9a825" opacity="0.7"/><rect x="8" y="15" width="4" height="4" fill="#f9a825"/><rect x="12" y="15" width="4" height="4" fill="#f9a825" opacity="0.7"/><rect x="4" y="19" width="8" height="3" fill="#f9a825" opacity="0.5"/></g><g transform="translate(155,240) scale(0.5)"><rect x="1" y="0" width="3" height="5" fill="#66bb6a" opacity="0.8"/><rect x="6" y="0" width="3" height="7" fill="#43a047"/><rect x="11" y="0" width="3" height="6" fill="#66bb6a" opacity="0.8"/><rect x="16" y="0" width="3" height="5" fill="#43a047" opacity="0.7"/><rect x="0" y="7" width="4" height="4" fill="#f9a825"/><rect x="4" y="7" width="4" height="4" fill="#f9a825" opacity="0.7"/><rect x="8" y="7" width="4" height="4" fill="#f9a825"/><rect x="12" y="7" width="4" height="4" fill="#f9a825" opacity="0.7"/><rect x="0" y="11" width="4" height="4" fill="#f9a825" opacity="0.7"/><rect x="4" y="11" width="4" height="4" fill="#f9a825"/><rect x="8" y="11" width="4" height="4" fill="#f9a825" opacity="0.7"/><rect x="12" y="11" width="4" height="4" fill="#f9a825"/><rect x="0" y="15" width="4" height="4" fill="#f9a825"/><rect x="4" y="15" width="4" height="4" fill="#f9a825" opacity="0.7"/><rect x="8" y="15" width="4" height="4" fill="#f9a825"/><rect x="12" y="15" width="4" height="4" fill="#f9a825" opacity="0.7"/><rect x="4" y="19" width="8" height="3" fill="#f9a825" opacity="0.5"/></g><g transform="translate(265,260) scale(0.55)"><rect x="1" y="0" width="3" height="5" fill="#66bb6a" opacity="0.8"/><rect x="6" y="0" width="3" height="7" fill="#43a047"/><rect x="11" y="0" width="3" height="6" fill="#66bb6a" opacity="0.8"/><rect x="16" y="0" width="3" height="5" fill="#43a047" opacity="0.7"/><rect x="0" y="7" width="4" height="4" fill="#f9a825"/><rect x="4" y="7" width="4" height="4" fill="#f9a825" opacity="0.7"/><rect x="8" y="7" width="4" height="4" fill="#f9a825"/><rect x="12" y="7" width="4" height="4" fill="#f9a825" opacity="0.7"/><rect x="0" y="11" width="4" height="4" fill="#f9a825" opacity="0.7"/><rect x="4" y="11" width="4" height="4" fill="#f9a825"/><rect x="8" y="11" width="4" height="4" fill="#f9a825" opacity="0.7"/><rect x="12" y="11" width="4" height="4" fill="#f9a825"/><rect x="0" y="15" width="4" height="4" fill="#f9a825"/><rect x="4" y="15" width="4" height="4" fill="#f9a825" opacity="0.7"/><rect x="8" y="15" width="4" height="4" fill="#f9a825"/><rect x="12" y="15" width="4" height="4" fill="#f9a825" opacity="0.7"/><rect x="4" y="19" width="8" height="3" fill="#f9a825" opacity="0.5"/></g><g transform="translate(355,285) scale(0.62)"><rect x="1" y="0" width="3" height="5" fill="#66bb6a" opacity="0.8"/><rect x="6" y="0" width="3" height="7" fill="#43a047"/><rect x="11" y="0" width="3" height="6" fill="#66bb6a" opacity="0.8"/><rect x="16" y="0" width="3" height="5" fill="#43a047" opacity="0.7"/><rect x="0" y="7" width="4" height="4" fill="#f9a825"/><rect x="4" y="7" width="4" height="4" fill="#f9a825" opacity="0.7"/><rect x="8" y="7" width="4" height="4" fill="#f9a825"/><rect x="12" y="7" width="4" height="4" fill="#f9a825" opacity="0.7"/><rect x="0" y="11" width="4" height="4" fill="#f9a825" opacity="0.7"/><rect x="4" y="11" width="4" height="4" fill="#f9a825"/><rect x="8" y="11" width="4" height="4" fill="#f9a825" opacity="0.7"/><rect x="12" y="11" width="4" height="4" fill="#f9a825"/><rect x="0" y="15" width="4" height="4" fill="#f9a825"/><rect x="4" y="15" width="4" height="4" fill="#f9a825" opacity="0.7"/><rect x="8" y="15" width="4" height="4" fill="#f9a825"/><rect x="12" y="15" width="4" height="4" fill="#f9a825" opacity="0.7"/><rect x="4" y="19" width="8" height="3" fill="#f9a825" opacity="0.5"/></g><g transform="translate(15,315) scale(0.53)"><rect x="1" y="0" width="3" height="5" fill="#66bb6a" opacity="0.8"/><rect x="6" y="0" width="3" height="7" fill="#43a047"/><rect x="11" y="0" width="3" height="6" fill="#66bb6a" opacity="0.8"/><rect x="16" y="0" width="3" height="5" fill="#43a047" opacity="0.7"/><rect x="0" y="7" width="4" height="4" fill="#f9a825"/><rect x="4" y="7" width="4" height="4" fill="#f9a825" opacity="0.7"/><rect x="8" y="7" width="4" height="4" fill="#f9a825"/><rect x="12" y="7" width="4" height="4" fill="#f9a825" opacity="0.7"/><rect x="0" y="11" width="4" height="4" fill="#f9a825" opacity="0.7"/><rect x="4" y="11" width="4" height="4" fill="#f9a825"/><rect x="8" y="11" width="4" height="4" fill="#f9a825" opacity="0.7"/><rect x="12" y="11" width="4" height="4" fill="#f9a825"/><rect x="0" y="15" width="4" height="4" fill="#f9a825"/><rect x="4" y="15" width="4" height="4" fill="#f9a825" opacity="0.7"/><rect x="8" y="15" width="4" height="4" fill="#f9a825"/><rect x="12" y="15" width="4" height="4" fill="#f9a825" opacity="0.7"/><rect x="4" y="19" width="8" height="3" fill="#f9a825" opacity="0.5"/></g><g transform="translate(125,305) scale(0.55)"><rect x="1" y="0" width="3" height="5" fill="#66bb6a" opacity="0.8"/><rect x="6" y="0" width="3" height="7" fill="#43a047"/><rect x="11" y="0" width="3" height="6" fill="#66bb6a" opacity="0.8"/><rect x="16" y="0" width="3" height="5" fill="#43a047" opacity="0.7"/><rect x="0" y="7" width="4" height="4" fill="#f9a825"/><rect x="4" y="7" width="4" height="4" fill="#f9a825" opacity="0.7"/><rect x="8" y="7" width="4" height="4" fill="#f9a825"/><rect x="12" y="7" width="4" height="4" fill="#f9a825" opacity="0.7"/><rect x="0" y="11" width="4" height="4" fill="#f9a825" opacity="0.7"/><rect x="4" y="11" width="4" height="4" fill="#f9a825"/><rect x="8" y="11" width="4" height="4" fill="#f9a825" opacity="0.7"/><rect x="12" y="11" width="4" height="4" fill="#f9a825"/><rect x="0" y="15" width="4" height="4" fill="#f9a825"/><rect x="4" y="15" width="4" height="4" fill="#f9a825" opacity="0.7"/><rect x="8" y="15" width="4" height="4" fill="#f9a825"/><rect x="12" y="15" width="4" height="4" fill="#f9a825" opacity="0.7"/><rect x="4" y="19" width="8" height="3" fill="#f9a825" opacity="0.5"/></g><g transform="translate(240,320) scale(0.62)"><rect x="1" y="0" width="3" height="5" fill="#66bb6a" opacity="0.8"/><rect x="6" y="0" width="3" height="7" fill="#43a047"/><rect x="11" y="0" width="3" height="6" fill="#66bb6a" opacity="0.8"/><rect x="16" y="0" width="3" height="5" fill="#43a047" opacity="0.7"/><rect x="0" y="7" width="4" height="4" fill="#f9a825"/><rect x="4" y="7" width="4" height="4" fill="#f9a825" opacity="0.7"/><rect x="8" y="7" width="4" height="4" fill="#f9a825"/><rect x="12" y="7" width="4" height="4" fill="#f9a825" opacity="0.7"/><rect x="0" y="11" width="4" height="4" fill="#f9a825" opacity="0.7"/><rect x="4" y="11" width="4" height="4" fill="#f9a825"/><rect x="8" y="11" width="4" height="4" fill="#f9a825" opacity="0.7"/><rect x="12" y="11" width="4" height="4" fill="#f9a825"/><rect x="0" y="15" width="4" height="4" fill="#f9a825"/><rect x="4" y="15" width="4" height="4" fill="#f9a825" opacity="0.7"/><rect x="8" y="15" width="4" height="4" fill="#f9a825"/><rect x="12" y="15" width="4" height="4" fill="#f9a825" opacity="0.7"/><rect x="4" y="19" width="8" height="3" fill="#f9a825" opacity="0.5"/></g><g transform="translate(345,340) scale(0.5)"><rect x="1" y="0" width="3" height="5" fill="#66bb6a" opacity="0.8"/><rect x="6" y="0" width="3" height="7" fill="#43a047"/><rect x="11" y="0" width="3" height="6" fill="#66bb6a" opacity="0.8"/><rect x="16" y="0" width="3" height="5" fill="#43a047" opacity="0.7"/><rect x="0" y="7" width="4" height="4" fill="#f9a825"/><rect x="4" y="7" width="4" height="4" fill="#f9a825" opacity="0.7"/><rect x="8" y="7" width="4" height="4" fill="#f9a825"/><rect x="12" y="7" width="4" height="4" fill="#f9a825" opacity="0.7"/><rect x="0" y="11" width="4" height="4" fill="#f9a825" opacity="0.7"/><rect x="4" y="11" width="4" height="4" fill="#f9a825"/><rect x="8" y="11" width="4" height="4" fill="#f9a825" opacity="0.7"/><rect x="12" y="11" width="4" height="4" fill="#f9a825"/><rect x="0" y="15" width="4" height="4" fill="#f9a825"/><rect x="4" y="15" width="4" height="4" fill="#f9a825" opacity="0.7"/><rect x="8" y="15" width="4" height="4" fill="#f9a825"/><rect x="12" y="15" width="4" height="4" fill="#f9a825" opacity="0.7"/><rect x="4" y="19" width="8" height="3" fill="#f9a825" opacity="0.5"/></g><g transform="translate(60,365) scale(0.55)"><rect x="1" y="0" width="3" height="5" fill="#66bb6a" opacity="0.8"/><rect x="6" y="0" width="3" height="7" fill="#43a047"/><rect x="11" y="0" width="3" height="6" fill="#66bb6a" opacity="0.8"/><rect x="16" y="0" width="3" height="5" fill="#43a047" opacity="0.7"/><rect x="0" y="7" width="4" height="4" fill="#f9a825"/><rect x="4" y="7" width="4" height="4" fill="#f9a825" opacity="0.7"/><rect x="8" y="7" width="4" height="4" fill="#f9a825"/><rect x="12" y="7" width="4" height="4" fill="#f9a825" opacity="0.7"/><rect x="0" y="11" width="4" height="4" fill="#f9a825" opacity="0.7"/><rect x="4" y="11" width="4" height="4" fill="#f9a825"/><rect x="8" y="11" width="4" height="4" fill="#f9a825" opacity="0.7"/><rect x="12" y="11" width="4" height="4" fill="#f9a825"/><rect x="0" y="15" width="4" height="4" fill="#f9a825"/><rect x="4" y="15" width="4" height="4" fill="#f9a825" opacity="0.7"/><rect x="8" y="15" width="4" height="4" fill="#f9a825"/><rect x="12" y="15" width="4" height="4" fill="#f9a825" opacity="0.7"/><rect x="4" y="19" width="8" height="3" fill="#f9a825" opacity="0.5"/></g><g transform="translate(175,360) scale(0.53)"><rect x="1" y="0" width="3" height="5" fill="#66bb6a" opacity="0.8"/><rect x="6" y="0" width="3" height="7" fill="#43a047"/><rect x="11" y="0" width="3" height="6" fill="#66bb6a" opacity="0.8"/><rect x="16" y="0" width="3" height="5" fill="#43a047" opacity="0.7"/><rect x="0" y="7" width="4" height="4" fill="#f9a825"/><rect x="4" y="7" width="4" height="4" fill="#f9a825" opacity="0.7"/><rect x="8" y="7" width="4" height="4" fill="#f9a825"/><rect x="12" y="7" width="4" height="4" fill="#f9a825" opacity="0.7"/><rect x="0" y="11" width="4" height="4" fill="#f9a825" opacity="0.7"/><rect x="4" y="11" width="4" height="4" fill="#f9a825"/><rect x="8" y="11" width="4" height="4" fill="#f9a825" opacity="0.7"/><rect x="12" y="11" width="4" height="4" fill="#f9a825"/><rect x="0" y="15" width="4" height="4" fill="#f9a825"/><rect x="4" y="15" width="4" height="4" fill="#f9a825" opacity="0.7"/><rect x="8" y="15" width="4" height="4" fill="#f9a825"/><rect x="12" y="15" width="4" height="4" fill="#f9a825" opacity="0.7"/><rect x="4" y="19" width="8" height="3" fill="#f9a825" opacity="0.5"/></g><g transform="translate(295,375) scale(0.62)"><rect x="1" y="0" width="3" height="5" fill="#66bb6a" opacity="0.8"/><rect x="6" y="0" width="3" height="7" fill="#43a047"/><rect x="11" y="0" width="3" height="6" fill="#66bb6a" opacity="0.8"/><rect x="16" y="0" width="3" height="5" fill="#43a047" opacity="0.7"/><rect x="0" y="7" width="4" height="4" fill="#f9a825"/><rect x="4" y="7" width="4" height="4" fill="#f9a825" opacity="0.7"/><rect x="8" y="7" width="4" height="4" fill="#f9a825"/><rect x="12" y="7" width="4" height="4" fill="#f9a825" opacity="0.7"/><rect x="0" y="11" width="4" height="4" fill="#f9a825" opacity="0.7"/><rect x="4" y="11" width="4" height="4" fill="#f9a825"/><rect x="8" y="11" width="4" height="4" fill="#f9a825" opacity="0.7"/><rect x="12" y="11" width="4" height="4" fill="#f9a825"/><rect x="0" y="15" width="4" height="4" fill="#f9a825"/><rect x="4" y="15" width="4" height="4" fill="#f9a825" opacity="0.7"/><rect x="8" y="15" width="4" height="4" fill="#f9a825"/><rect x="12" y="15" width="4" height="4" fill="#f9a825" opacity="0.7"/><rect x="4" y="19" width="8" height="3" fill="#f9a825" opacity="0.5"/></g>
  </g>
</svg>