<svg xmlns="http://www.w3.org/2000/svg" viewBox="0 0 400 400" width="400" height="400">
  <rect width="400" height="400" fill="#e8f5e9"/>
  <defs>
    <filter id="glow" x="-80%" y="-80%" width="260%" height="260%">
      <feGaussianBlur stdDeviation="2" result="b"/>
      <feMerge><feMergeNode in="b"/><feMergeNode in="SourceGraphic"/></feMerge>
    </filter>
  </defs>

  <!-- Strawberry shape macro -->
  <!-- Each strawberry: leaves + heart body + seeds -->

  <g filter="url(#glow)" opacity="0.42">
  <!-- 1 --><g transform="translate(18,22) scale(0.62)"><rect x="3" y="-6" width="3" height="6" fill="#43a047"/><rect x="8" y="-8" width="4" height="8" fill="#43a047"/><rect x="14" y="-6" width="3" height="6" fill="#43a047"/><rect x="0" y="0" width="8" height="4" fill="#e91e63"/><rect x="12" y="0" width="8" height="4" fill="#e91e63"/><rect x="0" y="4" width="20" height="4" fill="#e91e63"/><rect x="0" y="8" width="20" height="4" fill="#e91e63" opacity="0.9"/><rect x="2" y="12" width="16" height="4" fill="#e91e63" opacity="0.85"/><rect x="4" y="16" width="12" height="4" fill="#e91e63" opacity="0.8"/><rect x="6" y="20" width="8" height="4" fill="#e91e63" opacity="0.7"/><rect x="8" y="24" width="4" height="3" fill="#e91e63" opacity="0.6"/><rect x="5" y="6" width="2" height="2" fill="#fff" opacity="0.85"/><rect x="13" y="6" width="2" height="2" fill="#fff" opacity="0.85"/><rect x="9" y="11" width="2" height="2" fill="#fff" opacity="0.85"/><rect x="5" y="15" width="2" height="2" fill="#fff" opacity="0.7"/></g>
  <!-- 2 --><g transform="translate(110,15) scale(0.55)"><rect x="3" y="-6" width="3" height="6" fill="#43a047"/><rect x="8" y="-8" width="4" height="8" fill="#43a047"/><rect x="14" y="-6" width="3" height="6" fill="#43a047"/><rect x="0" y="0" width="8" height="4" fill="#e91e63"/><rect x="12" y="0" width="8" height="4" fill="#e91e63"/><rect x="0" y="4" width="20" height="4" fill="#e91e63"/><rect x="0" y="8" width="20" height="4" fill="#e91e63" opacity="0.9"/><rect x="2" y="12" width="16" height="4" fill="#e91e63" opacity="0.85"/><rect x="4" y="16" width="12" height="4" fill="#e91e63" opacity="0.8"/><rect x="6" y="20" width="8" height="4" fill="#e91e63" opacity="0.7"/><rect x="8" y="24" width="4" height="3" fill="#e91e63" opacity="0.6"/><rect x="5" y="6" width="2" height="2" fill="#fff" opacity="0.85"/><rect x="13" y="6" width="2" height="2" fill="#fff" opacity="0.85"/><rect x="9" y="11" width="2" height="2" fill="#fff" opacity="0.85"/><rect x="5" y="15" width="2" height="2" fill="#fff" opacity="0.7"/></g>
  <!-- 3 --><g transform="translate(210,30) scale(0.68)"><rect x="3" y="-6" width="3" height="6" fill="#43a047"/><rect x="8" y="-8" width="4" height="8" fill="#43a047"/><rect x="14" y="-6" width="3" height="6" fill="#43a047"/><rect x="0" y="0" width="8" height="4" fill="#e91e63"/><rect x="12" y="0" width="8" height="4" fill="#e91e63"/><rect x="0" y="4" width="20" height="4" fill="#e91e63"/><rect x="0" y="8" width="20" height="4" fill="#e91e63" opacity="0.9"/><rect x="2" y="12" width="16" height="4" fill="#e91e63" opacity="0.85"/><rect x="4" y="16" width="12" height="4" fill="#e91e63" opacity="0.8"/><rect x="6" y="20" width="8" height="4" fill="#e91e63" opacity="0.7"/><rect x="8" y="24" width="4" height="3" fill="#e91e63" opacity="0.6"/><rect x="5" y="6" width="2" height="2" fill="#fff" opacity="0.85"/><rect x="13" y="6" width="2" height="2" fill="#fff" opacity="0.85"/><rect x="9" y="11" width="2" height="2" fill="#fff" opacity="0.85"/><rect x="5" y="15" width="2" height="2" fill="#fff" opacity="0.7"/></g>
  <!-- 4 --><g transform="translate(320,10) scale(0.56)"><rect x="3" y="-6" width="3" height="6" fill="#43a047"/><rect x="8" y="-8" width="4" height="8" fill="#43a047"/><rect x="14" y="-6" width="3" height="6" fill="#43a047"/><rect x="0" y="0" width="8" height="4" fill="#e91e63"/><rect x="12" y="0" width="8" height="4" fill="#e91e63"/><rect x="0" y="4" width="20" height="4" fill="#e91e63"/><rect x="0" y="8" width="20" height="4" fill="#e91e63" opacity="0.9"/><rect x="2" y="12" width="16" height="4" fill="#e91e63" opacity="0.85"/><rect x="4" y="16" width="12" height="4" fill="#e91e63" opacity="0.8"/><rect x="6" y="20" width="8" height="4" fill="#e91e63" opacity="0.7"/><rect x="8" y="24" width="4" height="3" fill="#e91e63" opacity="0.6"/><rect x="5" y="6" width="2" height="2" fill="#fff" opacity="0.85"/><rect x="13" y="6" width="2" height="2" fill="#fff" opacity="0.85"/><rect x="9" y="11" width="2" height="2" fill="#fff" opacity="0.85"/></g>
  <!-- 5 --><g transform="translate(365,65) scale(0.62)"><rect x="3" y="-6" width="3" height="6" fill="#43a047"/><rect x="8" y="-8" width="4" height="8" fill="#43a047"/><rect x="14" y="-6" width="3" height="6" fill="#43a047"/><rect x="0" y="0" width="8" height="4" fill="#e91e63"/><rect x="12" y="0" width="8" height="4" fill="#e91e63"/><rect x="0" y="4" width="20" height="4" fill="#e91e63"/><rect x="0" y="8" width="20" height="4" fill="#e91e63" opacity="0.9"/><rect x="2" y="12" width="16" height="4" fill="#e91e63" opacity="0.85"/><rect x="4" y="16" width="12" height="4" fill="#e91e63" opacity="0.8"/><rect x="6" y="20" width="8" height="4" fill="#e91e63" opacity="0.7"/><rect x="8" y="24" width="4" height="3" fill="#e91e63" opacity="0.6"/><rect x="5" y="6" width="2" height="2" fill="#fff" opacity="0.85"/><rect x="13" y="6" width="2" height="2" fill="#fff" opacity="0.85"/></g>
  <!-- 6 --><g transform="translate(55,105) scale(0.68)"><rect x="3" y="-6" width="3" height="6" fill="#43a047"/><rect x="8" y="-8" width="4" height="8" fill="#43a047"/><rect x="14" y="-6" width="3" height="6" fill="#43a047"/><rect x="0" y="0" width="8" height="4" fill="#e91e63"/><rect x="12" y="0" width="8" height="4" fill="#e91e63"/><rect x="0" y="4" width="20" height="4" fill="#e91e63"/><rect x="0" y="8" width="20" height="4" fill="#e91e63" opacity="0.9"/><rect x="2" y="12" width="16" height="4" fill="#e91e63" opacity="0.85"/><rect x="4" y="16" width="12" height="4" fill="#e91e63" opacity="0.8"/><rect x="6" y="20" width="8" height="4" fill="#e91e63" opacity="0.7"/><rect x="8" y="24" width="4" height="3" fill="#e91e63" opacity="0.6"/><rect x="5" y="6" width="2" height="2" fill="#fff" opacity="0.85"/><rect x="13" y="6" width="2" height="2" fill="#fff" opacity="0.85"/><rect x="9" y="11" width="2" height="2" fill="#fff" opacity="0.85"/><rect x="5" y="15" width="2" height="2" fill="#fff" opacity="0.7"/></g>
  <!-- 7 --><g transform="translate(160,85) scale(0.53)"><rect x="3" y="-6" width="3" height="6" fill="#43a047"/><rect x="8" y="-8" width="4" height="8" fill="#43a047"/><rect x="14" y="-6" width="3" height="6" fill="#43a047"/><rect x="0" y="0" width="8" height="4" fill="#e91e63"/><rect x="12" y="0" width="8" height="4" fill="#e91e63"/><rect x="0" y="4" width="20" height="4" fill="#e91e63"/><rect x="0" y="8" width="20" height="4" fill="#e91e63" opacity="0.9"/><rect x="2" y="12" width="16" height="4" fill="#e91e63" opacity="0.85"/><rect x="4" y="16" width="12" height="4" fill="#e91e63" opacity="0.8"/><rect x="6" y="20" width="8" height="4" fill="#e91e63" opacity="0.7"/><rect x="8" y="24" width="4" height="3" fill="#e91e63" opacity="0.6"/><rect x="5" y="6" width="2" height="2" fill="#fff" opacity="0.85"/><rect x="13" y="6" width="2" height="2" fill="#fff" opacity="0.85"/><rect x="9" y="11" width="2" height="2" fill="#fff" opacity="0.85"/></g>
  <!-- 8 --><g transform="translate(270,90) scale(0.62)"><rect x="3" y="-6" width="3" height="6" fill="#43a047"/><rect x="8" y="-8" width="4" height="8" fill="#43a047"/><rect x="14" y="-6" width="3" height="6" fill="#43a047"/><rect x="0" y="0" width="8" height="4" fill="#e91e63"/><rect x="12" y="0" width="8" height="4" fill="#e91e63"/><rect x="0" y="4" width="20" height="4" fill="#e91e63"/><rect x="0" y="8" width="20" height="4" fill="#e91e63" opacity="0.9"/><rect x="2" y="12" width="16" height="4" fill="#e91e63" opacity="0.85"/><rect x="4" y="16" width="12" height="4" fill="#e91e63" opacity="0.8"/><rect x="6" y="20" width="8" height="4" fill="#e91e63" opacity="0.7"/><rect x="8" y="24" width="4" height="3" fill="#e91e63" opacity="0.6"/><rect x="5" y="6" width="2" height="2" fill="#fff" opacity="0.85"/><rect x="13" y="6" width="2" height="2" fill="#fff" opacity="0.85"/></g>
  <!-- 9 --><g transform="translate(355,130) scale(0.56)"><rect x="3" y="-6" width="3" height="6" fill="#43a047"/><rect x="8" y="-8" width="4" height="8" fill="#43a047"/><rect x="14" y="-6" width="3" height="6" fill="#43a047"/><rect x="0" y="0" width="8" height="4" fill="#e91e63"/><rect x="12" y="0" width="8" height="4" fill="#e91e63"/><rect x="0" y="4" width="20" height="4" fill="#e91e63"/><rect x="0" y="8" width="20" height="4" fill="#e91e63" opacity="0.9"/><rect x="2" y="12" width="16" height="4" fill="#e91e63" opacity="0.85"/><rect x="4" y="16" width="12" height="4" fill="#e91e63" opacity="0.8"/><rect x="6" y="20" width="8" height="4" fill="#e91e63" opacity="0.7"/><rect x="8" y="24" width="4" height="3" fill="#e91e63" opacity="0.6"/><rect x="5" y="6" width="2" height="2" fill="#fff" opacity="0.85"/></g>
  <!-- 10 --><g transform="translate(15,175) scale(0.62)"><rect x="3" y="-6" width="3" height="6" fill="#43a047"/><rect x="8" y="-8" width="4" height="8" fill="#43a047"/><rect x="14" y="-6" width="3" height="6" fill="#43a047"/><rect x="0" y="0" width="8" height="4" fill="#e91e63"/><rect x="12" y="0" width="8" height="4" fill="#e91e63"/><rect x="0" y="4" width="20" height="4" fill="#e91e63"/><rect x="0" y="8" width="20" height="4" fill="#e91e63" opacity="0.9"/><rect x="2" y="12" width="16" height="4" fill="#e91e63" opacity="0.85"/><rect x="4" y="16" width="12" height="4" fill="#e91e63" opacity="0.8"/><rect x="6" y="20" width="8" height="4" fill="#e91e63" opacity="0.7"/><rect x="8" y="24" width="4" height="3" fill="#e91e63" opacity="0.6"/><rect x="5" y="6" width="2" height="2" fill="#fff" opacity="0.85"/><rect x="13" y="6" width="2" height="2" fill="#fff" opacity="0.85"/><rect x="9" y="11" width="2" height="2" fill="#fff" opacity="0.85"/><rect x="5" y="15" width="2" height="2" fill="#fff" opacity="0.7"/></g>
  <!-- 11 --><g transform="translate(115,160) scale(0.68)"><rect x="3" y="-6" width="3" height="6" fill="#43a047"/><rect x="8" y="-8" width="4" height="8" fill="#43a047"/><rect x="14" y="-6" width="3" height="6" fill="#43a047"/><rect x="0" y="0" width="8" height="4" fill="#e91e63"/><rect x="12" y="0" width="8" height="4" fill="#e91e63"/><rect x="0" y="4" width="20" height="4" fill="#e91e63"/><rect x="0" y="8" width="20" height="4" fill="#e91e63" opacity="0.9"/><rect x="2" y="12" width="16" height="4" fill="#e91e63" opacity="0.85"/><rect x="4" y="16" width="12" height="4" fill="#e91e63" opacity="0.8"/><rect x="6" y="20" width="8" height="4" fill="#e91e63" opacity="0.7"/><rect x="8" y="24" width="4" height="3" fill="#e91e63" opacity="0.6"/><rect x="5" y="6" width="2" height="2" fill="#fff" opacity="0.85"/><rect x="13" y="6" width="2" height="2" fill="#fff" opacity="0.85"/><rect x="9" y="11" width="2" height="2" fill="#fff" opacity="0.85"/><rect x="5" y="15" width="2" height="2" fill="#fff" opacity="0.7"/></g>
  <!-- 12 --><g transform="translate(225,150) scale(0.53)"><rect x="3" y="-6" width="3" height="6" fill="#43a047"/><rect x="8" y="-8" width="4" height="8" fill="#43a047"/><rect x="14" y="-6" width="3" height="6" fill="#43a047"/><rect x="0" y="0" width="8" height="4" fill="#e91e63"/><rect x="12" y="0" width="8" height="4" fill="#e91e63"/><rect x="0" y="4" width="20" height="4" fill="#e91e63"/><rect x="0" y="8" width="20" height="4" fill="#e91e63" opacity="0.9"/><rect x="2" y="12" width="16" height="4" fill="#e91e63" opacity="0.85"/><rect x="4" y="16" width="12" height="4" fill="#e91e63" opacity="0.8"/><rect x="6" y="20" width="8" height="4" fill="#e91e63" opacity="0.7"/><rect x="8" y="24" width="4" height="3" fill="#e91e63" opacity="0.6"/><rect x="5" y="6" width="2" height="2" fill="#fff" opacity="0.85"/><rect x="13" y="6" width="2" height="2" fill="#fff" opacity="0.85"/></g>
  <!-- 13 --><g transform="translate(330,175) scale(0.62)"><rect x="3" y="-6" width="3" height="6" fill="#43a047"/><rect x="8" y="-8" width="4" height="8" fill="#43a047"/><rect x="14" y="-6" width="3" height="6" fill="#43a047"/><rect x="0" y="0" width="8" height="4" fill="#e91e63"/><rect x="12" y="0" width="8" height="4" fill="#e91e63"/><rect x="0" y="4" width="20" height="4" fill="#e91e63"/><rect x="0" y="8" width="20" height="4" fill="#e91e63" opacity="0.9"/><rect x="2" y="12" width="16" height="4" fill="#e91e63" opacity="0.85"/><rect x="4" y="16" width="12" height="4" fill="#e91e63" opacity="0.8"/><rect x="6" y="20" width="8" height="4" fill="#e91e63" opacity="0.7"/><rect x="8" y="24" width="4" height="3" fill="#e91e63" opacity="0.6"/><rect x="5" y="6" width="2" height="2" fill="#fff" opacity="0.85"/></g>
  <!-- 14 --><g transform="translate(55,240) scale(0.68)"><rect x="3" y="-6" width="3" height="6" fill="#43a047"/><rect x="8" y="-8" width="4" height="8" fill="#43a047"/><rect x="14" y="-6" width="3" height="6" fill="#43a047"/><rect x="0" y="0" width="8" height="4" fill="#e91e63"/><rect x="12" y="0" width="8" height="4" fill="#e91e63"/><rect x="0" y="4" width="20" height="4" fill="#e91e63"/><rect x="0" y="8" width="20" height="4" fill="#e91e63" opacity="0.9"/><rect x="2" y="12" width="16" height="4" fill="#e91e63" opacity="0.85"/><rect x="4" y="16" width="12" height="4" fill="#e91e63" opacity="0.8"/><rect x="6" y="20" width="8" height="4" fill="#e91e63" opacity="0.7"/><rect x="8" y="24" width="4" height="3" fill="#e91e63" opacity="0.6"/><rect x="5" y="6" width="2" height="2" fill="#fff" opacity="0.85"/><rect x="13" y="6" width="2" height="2" fill="#fff" opacity="0.85"/><rect x="9" y="11" width="2" height="2" fill="#fff" opacity="0.85"/><rect x="5" y="15" width="2" height="2" fill="#fff" opacity="0.7"/></g>
  <!-- 15 --><g transform="translate(160,225) scale(0.53)"><rect x="3" y="-6" width="3" height="6" fill="#43a047"/><rect x="8" y="-8" width="4" height="8" fill="#43a047"/><rect x="14" y="-6" width="3" height="6" fill="#43a047"/><rect x="0" y="0" width="8" height="4" fill="#e91e63"/><rect x="12" y="0" width="8" height="4" fill="#e91e63"/><rect x="0" y="4" width="20" height="4" fill="#e91e63"/><rect x="0" y="8" width="20" height="4" fill="#e91e63" opacity="0.9"/><rect x="2" y="12" width="16" height="4" fill="#e91e63" opacity="0.85"/><rect x="4" y="16" width="12" height="4" fill="#e91e63" opacity="0.8"/><rect x="6" y="20" width="8" height="4" fill="#e91e63" opacity="0.7"/><rect x="8" y="24" width="4" height="3" fill="#e91e63" opacity="0.6"/><rect x="5" y="6" width="2" height="2" fill="#fff" opacity="0.85"/></g>
  <!-- 16 --><g transform="translate(265,245) scale(0.62)"><rect x="3" y="-6" width="3" height="6" fill="#43a047"/><rect x="8" y="-8" width="4" height="8" fill="#43a047"/><rect x="14" y="-6" width="3" height="6" fill="#43a047"/><rect x="0" y="0" width="8" height="4" fill="#e91e63"/><rect x="12" y="0" width="8" height="4" fill="#e91e63"/><rect x="0" y="4" width="20" height="4" fill="#e91e63"/><rect x="0" y="8" width="20" height="4" fill="#e91e63" opacity="0.9"/><rect x="2" y="12" width="16" height="4" fill="#e91e63" opacity="0.85"/><rect x="4" y="16" width="12" height="4" fill="#e91e63" opacity="0.8"/><rect x="6" y="20" width="8" height="4" fill="#e91e63" opacity="0.7"/><rect x="8" y="24" width="4" height="3" fill="#e91e63" opacity="0.6"/><rect x="5" y="6" width="2" height="2" fill="#fff" opacity="0.85"/><rect x="13" y="6" width="2" height="2" fill="#fff" opacity="0.85"/><rect x="9" y="11" width="2" height="2" fill="#fff" opacity="0.85"/></g>
  <!-- 17 --><g transform="translate(350,270) scale(0.68)"><rect x="3" y="-6" width="3" height="6" fill="#43a047"/><rect x="8" y="-8" width="4" height="8" fill="#43a047"/><rect x="14" y="-6" width="3" height="6" fill="#43a047"/><rect x="0" y="0" width="8" height="4" fill="#e91e63"/><rect x="12" y="0" width="8" height="4" fill="#e91e63"/><rect x="0" y="4" width="20" height="4" fill="#e91e63"/><rect x="0" y="8" width="20" height="4" fill="#e91e63" opacity="0.9"/><rect x="2" y="12" width="16" height="4" fill="#e91e63" opacity="0.85"/><rect x="4" y="16" width="12" height="4" fill="#e91e63" opacity="0.8"/><rect x="6" y="20" width="8" height="4" fill="#e91e63" opacity="0.7"/><rect x="8" y="24" width="4" height="3" fill="#e91e63" opacity="0.6"/><rect x="5" y="6" width="2" height="2" fill="#fff" opacity="0.85"/><rect x="13" y="6" width="2" height="2" fill="#fff" opacity="0.85"/></g>
  <!-- 18 --><g transform="translate(20,305) scale(0.56)"><rect x="3" y="-6" width="3" height="6" fill="#43a047"/><rect x="8" y="-8" width="4" height="8" fill="#43a047"/><rect x="14" y="-6" width="3" height="6" fill="#43a047"/><rect x="0" y="0" width="8" height="4" fill="#e91e63"/><rect x="12" y="0" width="8" height="4" fill="#e91e63"/><rect x="0" y="4" width="20" height="4" fill="#e91e63"/><rect x="0" y="8" width="20" height="4" fill="#e91e63" opacity="0.9"/><rect x="2" y="12" width="16" height="4" fill="#e91e63" opacity="0.85"/><rect x="4" y="16" width="12" height="4" fill="#e91e63" opacity="0.8"/><rect x="6" y="20" width="8" height="4" fill="#e91e63" opacity="0.7"/><rect x="8" y="24" width="4" height="3" fill="#e91e63" opacity="0.6"/><rect x="5" y="6" width="2" height="2" fill="#fff" opacity="0.85"/></g>
  <!-- 19 --><g transform="translate(120,290) scale(0.62)"><rect x="3" y="-6" width="3" height="6" fill="#43a047"/><rect x="8" y="-8" width="4" height="8" fill="#43a047"/><rect x="14" y="-6" width="3" height="6" fill="#43a047"/><rect x="0" y="0" width="8" height="4" fill="#e91e63"/><rect x="12" y="0" width="8" height="4" fill="#e91e63"/><rect x="0" y="4" width="20" height="4" fill="#e91e63"/><rect x="0" y="8" width="20" height="4" fill="#e91e63" opacity="0.9"/><rect x="2" y="12" width="16" height="4" fill="#e91e63" opacity="0.85"/><rect x="4" y="16" width="12" height="4" fill="#e91e63" opacity="0.8"/><rect x="6" y="20" width="8" height="4" fill="#e91e63" opacity="0.7"/><rect x="8" y="24" width="4" height="3" fill="#e91e63" opacity="0.6"/><rect x="5" y="6" width="2" height="2" fill="#fff" opacity="0.85"/><rect x="13" y="6" width="2" height="2" fill="#fff" opacity="0.85"/><rect x="9" y="11" width="2" height="2" fill="#fff" opacity="0.85"/><rect x="5" y="15" width="2" height="2" fill="#fff" opacity="0.7"/></g>
  <!-- 20 --><g transform="translate(230,310) scale(0.68)"><rect x="3" y="-6" width="3" height="6" fill="#43a047"/><rect x="8" y="-8" width="4" height="8" fill="#43a047"/><rect x="14" y="-6" width="3" height="6" fill="#43a047"/><rect x="0" y="0" width="8" height="4" fill="#e91e63"/><rect x="12" y="0" width="8" height="4" fill="#e91e63"/><rect x="0" y="4" width="20" height="4" fill="#e91e63"/><rect x="0" y="8" width="20" height="4" fill="#e91e63" opacity="0.9"/><rect x="2" y="12" width="16" height="4" fill="#e91e63" opacity="0.85"/><rect x="4" y="16" width="12" height="4" fill="#e91e63" opacity="0.8"/><rect x="6" y="20" width="8" height="4" fill="#e91e63" opacity="0.7"/><rect x="8" y="24" width="4" height="3" fill="#e91e63" opacity="0.6"/><rect x="5" y="6" width="2" height="2" fill="#fff" opacity="0.85"/><rect x="13" y="6" width="2" height="2" fill="#fff" opacity="0.85"/></g>
  <!-- 21 --><g transform="translate(340,325) scale(0.53)"><rect x="3" y="-6" width="3" height="6" fill="#43a047"/><rect x="8" y="-8" width="4" height="8" fill="#43a047"/><rect x="14" y="-6" width="3" height="6" fill="#43a047"/><rect x="0" y="0" width="8" height="4" fill="#e91e63"/><rect x="12" y="0" width="8" height="4" fill="#e91e63"/><rect x="0" y="4" width="20" height="4" fill="#e91e63"/><rect x="0" y="8" width="20" height="4" fill="#e91e63" opacity="0.9"/><rect x="2" y="12" width="16" height="4" fill="#e91e63" opacity="0.85"/><rect x="4" y="16" width="12" height="4" fill="#e91e63" opacity="0.8"/><rect x="6" y="20" width="8" height="4" fill="#e91e63" opacity="0.7"/><rect x="8" y="24" width="4" height="3" fill="#e91e63" opacity="0.6"/><rect x="5" y="6" width="2" height="2" fill="#fff" opacity="0.85"/></g>
  <!-- 22 --><g transform="translate(65,360) scale(0.62)"><rect x="3" y="-6" width="3" height="6" fill="#43a047"/><rect x="8" y="-8" width="4" height="8" fill="#43a047"/><rect x="14" y="-6" width="3" height="6" fill="#43a047"/><rect x="0" y="0" width="8" height="4" fill="#e91e63"/><rect x="12" y="0" width="8" height="4" fill="#e91e63"/><rect x="0" y="4" width="20" height="4" fill="#e91e63"/><rect x="0" y="8" width="20" height="4" fill="#e91e63" opacity="0.9"/><rect x="2" y="12" width="16" height="4" fill="#e91e63" opacity="0.85"/><rect x="4" y="16" width="12" height="4" fill="#e91e63" opacity="0.8"/><rect x="6" y="20" width="8" height="4" fill="#e91e63" opacity="0.7"/><rect x="8" y="24" width="4" height="3" fill="#e91e63" opacity="0.6"/><rect x="5" y="6" width="2" height="2" fill="#fff" opacity="0.85"/><rect x="13" y="6" width="2" height="2" fill="#fff" opacity="0.85"/><rect x="9" y="11" width="2" height="2" fill="#fff" opacity="0.85"/><rect x="5" y="15" width="2" height="2" fill="#fff" opacity="0.7"/></g>
  <!-- 23 --><g transform="translate(175,350) scale(0.56)"><rect x="3" y="-6" width="3" height="6" fill="#43a047"/><rect x="8" y="-8" width="4" height="8" fill="#43a047"/><rect x="14" y="-6" width="3" height="6" fill="#43a047"/><rect x="0" y="0" width="8" height="4" fill="#e91e63"/><rect x="12" y="0" width="8" height="4" fill="#e91e63"/><rect x="0" y="4" width="20" height="4" fill="#e91e63"/><rect x="0" y="8" width="20" height="4" fill="#e91e63" opacity="0.9"/><rect x="2" y="12" width="16" height="4" fill="#e91e63" opacity="0.85"/><rect x="4" y="16" width="12" height="4" fill="#e91e63" opacity="0.8"/><rect x="6" y="20" width="8" height="4" fill="#e91e63" opacity="0.7"/><rect x="8" y="24" width="4" height="3" fill="#e91e63" opacity="0.6"/><rect x="5" y="6" width="2" height="2" fill="#fff" opacity="0.85"/></g>
  <!-- 24 --><g transform="translate(290,370) scale(0.68)"><rect x="3" y="-6" width="3" height="6" fill="#43a047"/><rect x="8" y="-8" width="4" height="8" fill="#43a047"/><rect x="14" y="-6" width="3" height="6" fill="#43a047"/><rect x="0" y="0" width="8" height="4" fill="#e91e63"/><rect x="12" y="0" width="8" height="4" fill="#e91e63"/><rect x="0" y="4" width="20" height="4" fill="#e91e63"/><rect x="0" y="8" width="20" height="4" fill="#e91e63" opacity="0.9"/><rect x="2" y="12" width="16" height="4" fill="#e91e63" opacity="0.85"/><rect x="4" y="16" width="12" height="4" fill="#e91e63" opacity="0.8"/><rect x="6" y="20" width="8" height="4" fill="#e91e63" opacity="0.7"/><rect x="8" y="24" width="4" height="3" fill="#e91e63" opacity="0.6"/><rect x="5" y="6" width="2" height="2" fill="#fff" opacity="0.85"/><rect x="13" y="6" width="2" height="2" fill="#fff" opacity="0.85"/></g>
  </g>
</svg>
